<?xml version="1.0" encoding="iso-8859-1"?>
<!-- Generator: Adobe Illustrator 16.0.0, SVG Export Plug-In . SVG Version: 6.00 Build 0)  -->
<!DOCTYPE svg PUBLIC "-//W3C//DTD SVG 1.1//EN" "http://www.w3.org/Graphics/SVG/1.1/DTD/svg11.dtd">
<svg version="1.1" xmlns="http://www.w3.org/2000/svg" xmlns:xlink="http://www.w3.org/1999/xlink" x="0px" y="0px" width="70px"
	 height="70px" viewBox="0 0 70 70" style="enable-background:new 0 0 70 70;" xml:space="preserve">
<g id="tool_x5F_va">
	<g>
		<defs>
			<path id="SVGID_1_" d="M5.44,35c0,16.325,13.234,29.56,29.56,29.56S64.56,51.325,64.56,35S51.325,5.44,35,5.44
				S5.44,18.675,5.44,35"/>
		</defs>
		<clipPath id="SVGID_2_">
			<use xlink:href="#SVGID_1_"  style="overflow:visible;"/>
		</clipPath>
		<path style="clip-path:url(#SVGID_2_);fill:#0895D3;" d="M64.56,35C64.56,18.675,51.325,5.44,35,5.44S5.44,18.675,5.44,35
			S18.675,64.56,35,64.56S64.56,51.325,64.56,35"/>
		<path style="clip-path:url(#SVGID_2_);fill:#231F20;" d="M43.604,10.202c-10.58-0.248-13.778,10.707-13.778,10.707
			s-3.159,20.712,0,31.77c13.011,5.771,21.436,2.953,27.557,0c3.335-11.936,0-31.77,0-31.77S54.184,10.449,43.604,10.202"/>
		<path style="clip-path:url(#SVGID_2_);fill:#CDAA76;" d="M61.662,67.251c-6.846,0.001-12.376,0.001-19.222,0.002
			c-6.271,0-12.612,0.614-18.831,0.252c-0.604-0.035-1.229-0.085-1.758-0.374c-1.14-0.624-1.457-6.323-1.453-7.622
			c0.02-5.407,3.499-8.469,8.549-9.247c2.147-0.331,4.349-0.543,6.352-1.386c1.846-0.778,3.494-2.25,4.298-4.117
			c0.285-0.662,0.824-5.31,0.127-5.357c2.48,0.17,4.961,0.34,7.44,0.51c-0.304,3.052,0.818,6.216,2.976,8.395
			c0.487,0.492,1.039,0.944,1.692,1.17c0.533,0.184,1.104,0.208,1.667,0.23c3.479,0.139,8.237,1.317,10.354,4.535
			c1.788,2.717,1.104,7.133,1.015,10.181c-0.021,0.698-0.06,1.45-0.494,1.997C63.765,67.187,62.643,67.251,61.662,67.251"/>
		<path style="clip-path:url(#SVGID_2_);fill:#9F7D58;" d="M47.442,43.653c0.049-0.309-0.237-0.693-0.225-1.048
			c0.004-0.109,0.019-0.22-0.003-0.327c-0.031-0.16-0.144-0.296-0.276-0.392s-0.287-0.156-0.439-0.216
			c-1.009-0.394-1.917-0.792-3.011-0.919c-1.103-0.127-2.217-0.08-3.326-0.033c-0.782,0.033-0.442,0.785-0.322,1.34
			c0.084,0.391,0.06,0.812,0.071,1.213c0.003,0.112,0.007,0.227,0.04,0.334c0.063,0.206,0.229,0.362,0.387,0.508
			c0.226,0.208,0.45,0.415,0.676,0.622c0.246,0.227,0.496,0.455,0.789,0.616c0.536,0.293,1.171,0.334,1.782,0.334
			c0.357,0,0.719-0.013,1.067-0.091c0.82-0.181,1.508-0.696,2.141-1.223c0.203-0.169,0.577-0.405,0.644-0.688
			C47.439,43.673,47.441,43.663,47.442,43.653"/>
		<path style="clip-path:url(#SVGID_2_);fill:#CDAA76;" d="M54.749,29.2c-2.284,8.744-6.005,14.799-10.97,14.799
			c-5.285,0-9.243-7.095-10.971-14.799c0-11.291,4.506-14.813,11.051-14.813S54.749,18.229,54.749,29.2"/>
		<path style="clip-path:url(#SVGID_2_);fill:#CDAA76;" d="M33.405,32.972c0.237-0.134,0.318-0.465,0.364-0.759
			c0.184-1.157,0.225-2.343,0.123-3.513c-0.049-0.548-0.667-2.918-1.608-2.296c-0.208,0.137-0.311,0.389-0.348,0.634
			c-0.236,1.606-0.201,3.822,0.503,5.307C32.634,32.754,33.036,33.18,33.405,32.972"/>
		<path style="clip-path:url(#SVGID_2_);fill:#CDAA76;" d="M54.937,32.42c0.419-0.783,0.565-1.672,0.599-2.55
			c0.032-0.878-0.004-1.747-0.265-2.59c-0.076-0.246-0.206-0.518-0.456-0.582c-0.174-0.044-0.359,0.031-0.492,0.151
			c-0.132,0.12-0.22,0.28-0.303,0.439c-0.102,0.195-0.199,0.392-0.286,0.594c-0.164,0.386-0.208,0.882-0.249,1.3
			c-0.103,1.039-0.061,2.092,0.122,3.12c0.047,0.262,0.128,0.556,0.365,0.675C54.341,33.163,54.742,32.785,54.937,32.42"/>
		<path style="clip-path:url(#SVGID_2_);fill:#9F7D58;" d="M44.814,14.062c0.69-0.056,1.396-0.111,2.063,0.019
			c0.557,0.108,1.063,0.341,1.546,0.59c0.815,0.42,1.589,0.896,2.312,1.419c0.806,0.583,1.58,1.279,1.782,2.165
			c0.324,1.422-0.902,2.789-2.114,3.87c-1.396,1.246-3.1,2.196-4.743,3.069c-0.909,0.483-1.835,0.938-2.783,1.339
			c-0.265,0.113-0.439,0.187-0.731,0.189c-0.302,0.002-0.604-0.028-0.899-0.091c-0.055-0.012-0.125-0.051-0.105-0.104
			c0.01-0.023,0.034-0.036,0.058-0.047c0.361-0.165,0.684-0.388,1.059-0.545c0.412-0.173,0.836-0.329,1.217-0.566
			c0.571-0.355,1.104-0.938,1.587-1.405c0.48-0.463,0.949-0.952,1.336-1.498c0.16-0.225,0.313-0.46,0.428-0.712
			c0.065-0.143,0.102-0.497,0.195-0.602c-0.933,1.048-1.971,2.001-3.097,2.837c-2.023,1.502-4.317,2.608-6.726,3.336
			c-0.914,0.276-1.843,0.497-2.78,0.675c-0.37,0.07-0.742,0.131-1.114,0.192c-0.174,0.028-1.46,0.342-1.448,0.251
			c0.068-0.544-0.005-1.085,0.041-1.627c0.053-0.63,0.284-1.207,0.389-1.826c0.062-0.367,0.025-0.796,0.183-1.139
			c0.102-0.223,0.29-0.397,0.404-0.616c0.393-0.75,0.628-1.635,0.93-2.426c0.573-1.5,1.185-3.056,2.473-4.218
			c1.061-0.957,2.504-1.566,3.988-1.924C41.747,14.311,43.286,14.185,44.814,14.062"/>
		<path style="clip-path:url(#SVGID_2_);fill:#FFFFFF;" d="M43.779,40.67c2.863,0,4.004-1.308,4.004-3.605h-8.008
			C39.775,39.362,40.917,40.67,43.779,40.67"/>
		<path style="clip-path:url(#SVGID_2_);fill:none;stroke:#A87C4F;stroke-width:0.24;stroke-miterlimit:10;" d="M43.779,40.67
			c2.863,0,4.004-1.308,4.004-3.605h-8.008C39.775,39.362,40.917,40.67,43.779,40.67z"/>
		<path style="clip-path:url(#SVGID_2_);fill:#9F7D58;" d="M41.615,33.319c-0.084,0.2-0.17,0.405-0.183,0.622
			c-0.025,0.433,0.248,0.839,0.602,1.09s0.778,0.375,1.195,0.495c-0.458-0.672-0.604-1.511-0.618-2.325
			c-0.015-0.813,0.09-1.625,0.079-2.438C42.332,31.616,41.974,32.467,41.615,33.319"/>
		<path style="clip-path:url(#SVGID_2_);fill:#6B3B95;" d="M61.662,67.251c-6.846,0.001-12.376,0.001-19.222,0.002
			c-6.271,0-12.612,0.614-18.831,0.252c-0.604-0.035-1.229-0.085-1.758-0.374c-1.14-0.624-1.457-6.323-1.453-7.622
			c0.02-5.407,3.499-8.469,8.549-9.247c1.407-0.217,2.806-0.502,4.178-0.886c0.306-0.085,3.063-0.899,3.03-1.352
			c0.094,1.324,1.142,3.335,1.888,4.423c0.848,1.239,1.979,2.328,3.378,2.877c2.06,0.81,4.5,0.312,6.28-1.004
			s2.937-3.356,3.479-5.503c4.268,1.159,8.207,0.533,11.688,3.683c3.336,3.018,2.12,7.87,2,11.922
			c-0.021,0.698-0.06,1.45-0.494,1.997C63.765,67.187,62.643,67.251,61.662,67.251"/>
		<path style="clip-path:url(#SVGID_2_);fill:#3B2314;" d="M39.663,30.153c0.691,0,0.967-0.279,0.967-0.96
			c0-0.685-0.275-0.961-0.967-0.961c-0.692,0-0.968,0.276-0.968,0.961C38.695,29.874,38.971,30.153,39.663,30.153"/>
		<path style="clip-path:url(#SVGID_2_);fill:#3B2314;" d="M47.783,30.153c0.691,0,0.967-0.279,0.967-0.96
			c0-0.685-0.275-0.961-0.967-0.961s-0.968,0.276-0.968,0.961C46.815,29.874,47.092,30.153,47.783,30.153"/>
		<path style="clip-path:url(#SVGID_2_);fill:#231F20;" d="M53.079,18.057c-0.103-0.083-0.217-0.164-0.348-0.17
			c-0.109-0.005-0.214,0.044-0.309,0.099c-0.761,0.434-1.261,1.29-1.267,2.165c1.077,0.76,1.759,1.982,2.115,3.251
			c0.356,1.269,0.42,2.6,0.48,3.917c0.335-0.447,0.982-0.58,1.295-1.043c0.166-0.247,0.213-0.553,0.247-0.849
			c0.156-1.331,0.162-2.694-0.165-3.994C54.802,20.133,54.122,18.897,53.079,18.057"/>
		<path style="clip-path:url(#SVGID_2_);fill:#FFFFFF;" d="M15.578,45.262l-6.476-7.366H-1.404c-0.943,0-1.711-0.768-1.711-1.712
			V17.886h27.776c0.943,0,1.711,0.768,1.711,1.711v18.298H15.578V45.262z M-2.325,18.676v17.507c0,0.509,0.413,0.922,0.921,0.922
			H9.46l5.328,6.062v-6.062h10.794V19.598c0-0.508-0.413-0.921-0.921-0.921H-2.325z"/>
		<path style="clip-path:url(#SVGID_2_);fill:#FFFFFF;" d="M13.124,31.37c-0.343,0-0.515-0.296-0.515-0.885
			c0-0.272,0.03-0.514,0.09-0.726c0.059-0.212,0.149-0.418,0.273-0.62c0.124-0.2,0.284-0.404,0.479-0.61
			c0.194-0.206,0.422-0.434,0.681-0.682c0.236-0.224,0.434-0.422,0.594-0.592c0.158-0.171,0.285-0.331,0.38-0.479
			c0.094-0.147,0.162-0.294,0.203-0.442c0.042-0.147,0.063-0.321,0.063-0.522c0-0.578-0.156-0.988-0.469-1.23
			c-0.313-0.242-0.799-0.363-1.46-0.363c-0.437,0-0.839,0.032-1.204,0.097c-0.366,0.065-0.631,0.097-0.797,0.097
			c-0.152,0-0.253-0.035-0.301-0.106c-0.046-0.071-0.07-0.171-0.07-0.301V23.14c0.343-0.129,0.746-0.248,1.213-0.354
			c0.465-0.106,0.993-0.16,1.584-0.16c0.437,0,0.852,0.045,1.247,0.133c0.395,0.088,0.746,0.242,1.053,0.46
			c0.307,0.219,0.552,0.516,0.734,0.894c0.184,0.378,0.275,0.856,0.275,1.434c0,0.354-0.036,0.673-0.106,0.956
			c-0.07,0.283-0.174,0.546-0.31,0.788s-0.298,0.466-0.487,0.672c-0.188,0.207-0.396,0.416-0.619,0.628
			c-0.343,0.307-0.613,0.564-0.813,0.77c-0.202,0.207-0.36,0.405-0.479,0.594c-0.118,0.188-0.201,0.389-0.247,0.601
			c-0.048,0.212-0.078,0.484-0.09,0.815H13.124z M14.663,34.042c0,0.413-0.095,0.706-0.283,0.876
			c-0.188,0.171-0.49,0.256-0.903,0.256c-0.425,0-0.729-0.085-0.91-0.256c-0.185-0.17-0.275-0.463-0.275-0.876
			c0-0.401,0.096-0.688,0.284-0.858c0.188-0.171,0.489-0.257,0.901-0.257c0.413,0,0.715,0.085,0.903,0.257
			C14.568,33.354,14.663,33.641,14.663,34.042"/>
		<path style="clip-path:url(#SVGID_2_);fill:#231F20;" d="M44.814,13.461c0.69-0.056,1.396-0.111,2.063,0.019
			c0.557,0.108,1.063,0.341,1.546,0.59c0.815,0.42,1.589,0.896,2.312,1.42c0.806,0.583,1.58,1.279,1.782,2.165
			c0.324,1.422-0.902,2.789-2.114,3.87c-1.88,1.677-6.738,4.324-9.317,5.063c1.736-1.275,5.634-4.142,5.934-6.036
			c-6.39,7.183-14.99,6.921-15.514,7.392c-0.297-0.893,0.05-1.856,0.394-2.757c0.634-1.659,1.269-3.318,1.901-4.977
			c0.573-1.5,1.185-3.055,2.473-4.218c1.061-0.957,2.504-1.566,3.988-1.924C41.747,13.71,43.286,13.585,44.814,13.461"/>
	</g>
	<g>
		<defs>
			<rect id="SVGID_3_" x="5" y="5" width="60" height="60"/>
		</defs>
		<clipPath id="SVGID_4_">
			<use xlink:href="#SVGID_3_"  style="overflow:visible;"/>
		</clipPath>
		<path style="clip-path:url(#SVGID_4_);fill:#FFFFFF;" d="M32.473,60.092c-0.033,0-0.066-0.001-0.1-0.002l0.688-1.889h0.945
			c0.166,0,0.349-0.127,0.405-0.283l0.746-2.048c0.121-0.335-0.07-0.609-0.428-0.609h-1.312l-1.101,3.025h-0.001l-0.624,1.715
			c-1.48-0.353-2.582-1.684-2.582-3.271c0-1.543,1.039-2.843,2.455-3.238l-0.644,1.77l0,0l-1.071,2.94h0.713l0.91-2.499h0.536
			l-0.911,2.499l0.713,0.001l0.849-2.332c0.122-0.335-0.07-0.609-0.427-0.609h-0.6l0.688-1.891c0.05-0.002,0.101-0.004,0.15-0.004
			c1.857,0,3.363,1.506,3.363,3.363C35.836,58.586,34.33,60.092,32.473,60.092 M34.508,55.701h-0.535l-0.75,2.057h0.535
			L34.508,55.701z"/>
	</g>
</g>
<g id="Layer_1">
</g>
</svg>
