<svg xmlns="http://www.w3.org/2000/svg" width="30" height="30" fill="none" viewBox="0 0 30 30">
    <path stroke="#165DBA" stroke-width="1.5" d="M15 29.25c7.87 0 14.25-6.38 14.25-14.25S22.87.75 15 .75.75 7.13.75 15 7.13 29.25 15 29.25z"/>
    <path fill="#165DBA" d="M21.901 17.994V9.48c0-.348-.138-.68-.384-.926-.245-.246-.578-.384-.926-.384H6.516v9.824l-1.4 3.119c-.09.2-.129.418-.112.636.016.218.086.429.205.613.118.184.281.335.473.44.192.105.407.16.626.16h17.817l-2.224-4.968zm-1.31-8.514v7.86H7.826V9.48h12.765zM7.617 18.649h13.1l1.31 2.974H6.307l1.31-2.974z"/>
</svg>
