<svg id="Layer_1" data-name="Layer 1" xmlns="http://www.w3.org/2000/svg" viewBox="0 0 79.55 59.54"><defs><style>.cls-1{fill:none;}.cls-2{fill:#165DBA;}.cls-3{fill:#165DBA;}</style></defs><title>identify_product_all</title><path class="cls-1" d="M41.47,43.74H28V59H50.9V49.49A20.7,20.7,0,0,1,41.47,43.74Z" transform="translate(-8.51 -8.87)"/><path class="cls-1" d="M27.79,60.19,25.16,66a.9.9,0,0,0,.07.84.87.87,0,0,0,.76.4H54.34l-3.2-7.09Z" transform="translate(-8.51 -8.87)"/><rect class="cls-1" x="5.9" y="25.08" width="13.73" height="1.91"/><path class="cls-2" d="M9.43,48V36.74H32.11a1.16,1.16,0,0,1,1.15,1.16v3.66h.61V37.9a1.75,1.75,0,0,0-1.75-1.76H29v-3H13.54v3H8.78V48a1.76,1.76,0,0,0,1.76,1.76h1.85v-.61H10.54A1.15,1.15,0,0,1,9.43,48Zm4.72-14.31H28.38v2.45H14.15Z" transform="translate(-8.51 -8.87)"/><path class="cls-2" d="M14.29,36h14V33.82h-14Zm.13-2H28.14v1.92H14.42Z" transform="translate(-8.51 -8.87)"/><path class="cls-2" d="M9.66,48V37H32.11a.87.87,0,0,1,.88.88v3.93h1.15V37.9h0a2,2,0,0,0-2-2H29.26V32.81h-16v3.06H8.51V48a2,2,0,0,0,2,2h2.11V48.88H10.54A.87.87,0,0,1,9.66,48Zm2.89,1.89h-2A1.9,1.9,0,0,1,8.67,48V36h4.74V32.94H29.13V36h3A1.91,1.91,0,0,1,34,37.9v3.81h-.88V37.9h0a1,1,0,0,0-1-1H9.52V48a1,1,0,0,0,1,1h2Z" transform="translate(-8.51 -8.87)"/><path class="cls-2" d="M9.52,48V36.87H32.11a1,1,0,0,1,1,1h0v3.81H34V37.9A1.91,1.91,0,0,0,32.11,36h-3V32.94H13.41V36H8.67V48a1.9,1.9,0,0,0,1.89,1.9h2V49h-2A1,1,0,0,1,9.52,48Zm2.87,1.76H10.54A1.76,1.76,0,0,1,8.78,48V36.13h4.76v-3H29v3h3.13a1.75,1.75,0,0,1,1.75,1.76v3.66h-.61V37.9a1.16,1.16,0,0,0-1.15-1.16H9.43V48a1.15,1.15,0,0,0,1.11,1.15h1.85Z" transform="translate(-8.51 -8.87)"/><path class="cls-2" d="M28.38,33.68H14.15v2.45H28.38ZM28.25,36h-14V33.82h14Z" transform="translate(-8.51 -8.87)"/><path class="cls-2" d="M14.16,55V45.26h11.5v-.61H13.55V55a1.76,1.76,0,0,0,1.76,1.76H25.66v-.61H15.31A1.14,1.14,0,0,1,14.16,55Z" transform="translate(-8.51 -8.87)"/><path class="cls-2" d="M25.92,55.88H15.31a.89.89,0,0,1-.89-.89V45.53h11.5V44.38H13.28V55a2,2,0,0,0,2,2H25.92Zm-.13,1H15.31a1.9,1.9,0,0,1-1.9-1.9V44.51H25.79v.88H14.29V55a1,1,0,0,0,1,1H25.79Z" transform="translate(-8.51 -8.87)"/><path class="cls-2" d="M14.29,55v-9.6h11.5v-.88H13.41V55a1.9,1.9,0,0,0,1.9,1.9H25.79V56H15.31A1,1,0,0,1,14.29,55Zm11.37,1.76H15.31A1.76,1.76,0,0,1,13.55,55V44.65H25.66v.61H14.16V55a1.14,1.14,0,0,0,1.15,1.15H25.66Z" transform="translate(-8.51 -8.87)"/><rect class="cls-2" x="8.12" y="39.17" width="9.02" height="0.61"/><path class="cls-2" d="M25.92,47.77H16.37v1.14h9.55Zm-.13,1H16.51V47.9h9.28Z" transform="translate(-8.51 -8.87)"/><path class="cls-2" d="M16.51,48.78h9.28V47.9H16.51Zm.12-.74h9v.61h-9Z" transform="translate(-8.51 -8.87)"/><rect class="cls-2" x="8.12" y="41.92" width="9.02" height="0.61"/><path class="cls-2" d="M16.37,51.67h9.55V50.52H16.37Zm.14-1h9.28v.88H16.51Z" transform="translate(-8.51 -8.87)"/><path class="cls-2" d="M25.79,50.65H16.51v.88h9.28Zm-.13.75h-9v-.61h9Z" transform="translate(-8.51 -8.87)"/><path class="cls-2" d="M51.2,59.31H27.73V43.48h13.5c-.19-.21-.39-.41-.57-.63H27.12V59.46l-2.78,6.19A1.76,1.76,0,0,0,25.23,68a1.61,1.61,0,0,0,.72.16H55.7l-3.89-8.62V49.73l-.61-.16Zm3.53,8.22H26A1.12,1.12,0,0,1,25,67a1.14,1.14,0,0,1-.09-1.1l2.7-6h23.7Z" transform="translate(-8.51 -8.87)"/><path class="cls-2" d="M51.94,59.49l4,8.82H26a1.9,1.9,0,0,1-1.73-2.68L27,59.46V42.73H40.55l-.09-.13H26.88V59.4l-2.76,6.14a2.06,2.06,0,0,0,.15,1.94,2,2,0,0,0,1.71.93H56.1l-4-8.95V49.8l-.13,0Z" transform="translate(-8.51 -8.87)"/><path class="cls-2" d="M50.9,59H28V43.74H41.47l-.12-.13H27.89V59.19H51.06V49.53l-.16,0Z" transform="translate(-8.51 -8.87)"/><path class="cls-2" d="M27.73,60.06,25.05,66a1,1,0,0,0,.06,1,1,1,0,0,0,.87.47H54.54l-3.31-7.37ZM26,67.28a.87.87,0,0,1-.76-.4.9.9,0,0,1-.07-.84l2.63-5.85H51.14l3.2,7.09Z" transform="translate(-8.51 -8.87)"/><path class="cls-2" d="M27.62,59.89l-2.7,6A1.14,1.14,0,0,0,25,67a1.12,1.12,0,0,0,1,.53H54.73l-3.41-7.64ZM26,67.43a1,1,0,0,1-.87-.47,1,1,0,0,1-.06-1l2.68-5.93h23.5l3.31,7.37Z" transform="translate(-8.51 -8.87)"/><path class="cls-2" d="M27.73,59.31H51.2V49.57l-.14,0v9.66H27.89V43.61H41.35l-.12-.13H27.73Z" transform="translate(-8.51 -8.87)"/><path class="cls-2" d="M51.81,59.52l3.89,8.62H26a1.61,1.61,0,0,1-.72-.16,1.76,1.76,0,0,1-.89-2.33l2.78-6.19V42.84H40.66l-.11-.12H27V59.46l-2.76,6.17A1.9,1.9,0,0,0,26,68.31H55.89l-4-8.82V49.76l-.13,0Z" transform="translate(-8.51 -8.87)"/><path class="cls-3" d="M41.47,43.74a20.7,20.7,0,0,0,9.43,5.75V48.18a19.39,19.39,0,0,1-7.63-4.44Z" transform="translate(-8.51 -8.87)"/><path class="cls-3" d="M87.5,57.08h0L72.82,42.39l.07-.08a20.52,20.52,0,0,0,4.37-12.73,20.72,20.72,0,1,0-36.8,13h1.69a19.55,19.55,0,1,1,9.92,5.88V49.8a20.59,20.59,0,0,0,18-4.56l.09-.08.08.08L84.81,59.78a1.87,1.87,0,0,0,1.34.55,1.9,1.9,0,0,0,1.35-3.25Z" transform="translate(-8.51 -8.87)"/><path class="cls-3" d="M41.23,43.48H43c-.21-.2-.4-.42-.59-.62H40.66C40.84,43.07,41,43.27,41.23,43.48Z" transform="translate(-8.51 -8.87)"/><path class="cls-3" d="M51.2,49.57l.61.16V48.41l-.61-.15Z" transform="translate(-8.51 -8.87)"/><path class="cls-3" d="M51.94,48.45v1.31l.13,0V48.48Z" transform="translate(-8.51 -8.87)"/><path class="cls-3" d="M42.27,42.73l-.12-.13H40.46l.09.13Z" transform="translate(-8.51 -8.87)"/><path class="cls-3" d="M43.27,43.74l-.15-.13H41.35l.12.13Z" transform="translate(-8.51 -8.87)"/><path class="cls-3" d="M50.9,48.18v1.31l.16,0V48.22Z" transform="translate(-8.51 -8.87)"/><path class="cls-3" d="M51.81,49.73l.13,0V48.45l-.13,0Z" transform="translate(-8.51 -8.87)"/><path class="cls-3" d="M51.06,49.53l.14,0V48.26l-.14,0Z" transform="translate(-8.51 -8.87)"/><path class="cls-3" d="M43.12,43.61,43,43.48H41.23l.12.13Z" transform="translate(-8.51 -8.87)"/><path class="cls-3" d="M42.39,42.86l-.12-.13H40.55l.11.12Z" transform="translate(-8.51 -8.87)"/></svg>