<?xml version="1.0" encoding="utf-8"?>
<!-- Generator: Adobe Illustrator 23.0.1, SVG Export Plug-In . SVG Version: 6.00 Build 0)  -->
<svg version="1.1" id="Layer_1" xmlns="http://www.w3.org/2000/svg" xmlns:xlink="http://www.w3.org/1999/xlink" x="0px" y="0px"
	 viewBox="0 0 70 70" style="enable-background:new 0 0 70 70;" xml:space="preserve">
<style type="text/css">
	.st0{fill:#CCCCCC;}
</style>
<title>GWS_Specific_icons [Recovered]</title>
<path class="st0" d="M45.2,18.4c0,0.3-0.1,0.6-0.2,0.8c-0.4,0.8-8.1,14.4-8.1,14.4c-0.2,0.5-0.7,0.8-1.2,0.8c-0.5,0-1-0.4-1.3-0.8
	c0,0-7.6-13.6-8.1-14.4c-0.1-0.2-0.2-0.5-0.2-0.8c0-0.8,0.5-1.2,1.5-1.2h4V8.5h8v8.7h4C44.7,17.1,45.2,17.6,45.2,18.4 M46.6,18.4
	c0-1.5-1.2-2.6-2.6-2.7c-0.1,0-0.2,0-0.2,0h-2.6V7.1H30.3v8.7h-2.7c-1.5-0.1-2.7,0.9-2.9,2.4c0,0.1,0,0.2,0,0.3c0,0.5,0.1,1,0.4,1.5
	c0.4,0.8,7.6,13.5,8.1,14.4c0.5,0.9,1.4,1.6,2.5,1.6c1.1,0,2-0.6,2.5-1.6c0.5-0.9,7.6-13.6,8.1-14.4C46.5,19.4,46.6,18.9,46.6,18.4
	L46.6,18.4z"/>
<path class="st0" d="M35.7,36c-1.1,0-2.2-0.7-2.7-1.7c-0.1-0.1-7.6-13.5-8-14.4c-0.3-0.5-0.4-1-0.4-1.5c0-1.6,1.3-2.9,2.8-2.9
	c0.1,0,0.2,0,0.3,0h2.4V6.9h11.2v8.7h2.4c1.6-0.1,2.9,1,3.1,2.6c0,0.1,0,0.2,0,0.3c0,0.5-0.1,1.1-0.4,1.5c-0.4,0.8-6.8,12.1-8,14.4
	l0,0C37.9,35.3,36.8,36,35.7,36z M27.7,16c-1.3-0.1-2.5,0.9-2.6,2.2c0,0.1,0,0.1,0,0.2c0,0.5,0.1,0.9,0.3,1.3
	c0.5,0.9,8,14.2,8.1,14.4c0.4,0.9,1.3,1.4,2.3,1.5c1,0,1.9-0.6,2.3-1.5v-0.1c1.3-2.2,7.6-13.6,8-14.3c0.2-0.4,0.3-0.9,0.3-1.3
	c0-1.3-1.1-2.4-2.5-2.4c0,0-0.1,0-0.1,0h-2.9V7.3H30.5V16H27.7z M35.7,34.7c-0.6,0-1.2-0.4-1.5-1c-0.3-0.5-7.6-13.6-8-14.4
	C26.1,19,26,18.7,26,18.4c0-0.9,0.7-1.5,1.7-1.5h3.8V8.3h8.4v8.7h3.8c0.8-0.1,1.6,0.5,1.7,1.3c0,0.1,0,0.1,0,0.2
	c0,0.3-0.1,0.6-0.2,0.9c-0.4,0.8-7.8,13.8-8.1,14.4C36.9,34.2,36.3,34.6,35.7,34.7L35.7,34.7z M27.7,17.4c-0.8,0-1.3,0.4-1.3,1
	c0,0.2,0.1,0.5,0.2,0.7c0.4,0.8,8,14.2,8.1,14.4c0.2,0.6,0.9,0.9,1.5,0.7c0.3-0.1,0.6-0.4,0.7-0.7c0.1-0.2,7.6-13.6,8.1-14.4
	c0.1-0.2,0.2-0.4,0.2-0.7c0-0.7-0.5-1-1.3-1h-4.3V8.7h-7.5v8.7L27.7,17.4z"/>
<path class="st0" d="M55.8,47.8V25.7c0-1.7-1.3-3-3-3h-4.7l-1,1.7h5.6c0.7,0,1.3,0.6,1.3,1.3v21.5H15.6V24.3H24l-1-1.7h-9.1v25.1
	l-4.1,9.2c-0.7,1.5-0.1,3.3,1.4,4c0.4,0.2,0.9,0.3,1.3,0.3h49.3L55.8,47.8z M11.4,58.9c-0.3-0.4-0.3-0.9-0.1-1.3l3.9-8.7h39.2
	l4.8,10.6H12.6C12.1,59.5,11.7,59.2,11.4,58.9z"/>
</svg>
