<svg xmlns="http://www.w3.org/2000/svg" viewBox="0 0 54 44"><defs><style>.cls-1{fill:#0096d6;}</style></defs><title>Print_and_scan_doctor_RGB_blue_60 (2)</title><g id="Layer_2" data-name="Layer 2"><g id="Menu_RGB_blue_60"><g id="Print_and_scan_doctor_RGB_blue_60"><path class="cls-1" d="M26.91,13.33h-.52L24,19.85h2.06a1.5,1.5,0,0,1,.81.14,1.47,1.47,0,0,1,.66,2l-2.92,8H22.17l3.14-8.62H23.5L20.37,30H17.91l3.65-10.18,2.22-6.1a11.59,11.59,0,0,0,.44,22.44l2.15-5.91,3.8-10.43h4.52a1.5,1.5,0,0,1,.81.14,1.47,1.47,0,0,1,.66,2L33.57,29a1.59,1.59,0,0,1-1.4,1H28.91l-2.34,6.51h.34v0a11.59,11.59,0,1,0,0-23.18Z"/><polygon class="cls-1" points="32.08 21.32 29.49 28.42 31.34 28.42 33.91 21.32 32.08 21.32"/><path class="cls-1" d="M50,6.5H36V3a3,3,0,0,0-3-3H21a3,3,0,0,0-3,3V6.5H0V40a4,4,0,0,0,4,4H54V10.5A4,4,0,0,0,50,6.5ZM20,3a1,1,0,0,1,1-1H33a1,1,0,0,1,1,1V6.5H20ZM52,42H4a2,2,0,0,1-2-2V8.5H50a2,2,0,0,1,2,2Z"/></g></g></g></svg>