<svg xmlns="http://www.w3.org/2000/svg" viewBox="0 0 59.43 33.87"><defs><style>.cls-1{fill:#0096d6;}</style></defs><title>Video_RGB_blue_60</title><g id="Layer_2" data-name="Layer 2"><g id="Menu_RGB_blue_60"><path id="Video_RGB_blue_60" class="cls-1" d="M57.57,4.16a3.79,3.79,0,0,0-3.77-.09L44.56,9V5a5,5,0,0,0-5-5H0V28.87a5,5,0,0,0,5,5H44.56V24.76l9.24,4.93a3.82,3.82,0,0,0,5.63-3.37V7.44A3.81,3.81,0,0,0,57.57,4.16Zm-15,27.71H5a3,3,0,0,1-3-3V2H39.56a3,3,0,0,1,3,3Zm14.87-5.55a1.83,1.83,0,0,1-2.69,1.61L44.56,22.49V11.27L54.74,5.83a1.83,1.83,0,0,1,2.69,1.61Z"/></g></g></svg>