<svg xmlns="http://www.w3.org/2000/svg" xmlns:xlink="http://www.w3.org/1999/xlink" viewBox="0 0 53.47 58.89"><defs><style>.cls-1,.cls-3,.cls-4{fill:none;}.cls-2{clip-path:url(#clip-path);}.cls-3,.cls-4{stroke:#0096d6;stroke-width:2px;}.cls-3{stroke-miterlimit:10;}.cls-4{stroke-linecap:round;stroke-linejoin:round;}.cls-5{clip-path:url(#clip-path-2);}</style><clipPath id="clip-path" transform="translate(-0.64)"><path class="cls-1" d="M16.3,5.16c-2-2.8-9.14-2.55-10.65.84a13.19,13.19,0,0,0,.09,10.15C2.38,16.15,0,18.27,0,21v13c0,5.06,4.27,4.2,4.27,4.2C4.65,41.35,5,50.42,5.74,53c.67,2.21,1.88,2.51,5.2,2.51,1.8,0,5.36.33,6-2.52L18,40.84a2.41,2.41,0,0,1-.37-.07,5.24,5.24,0,0,1-4.5-5.11V21c0-3.78,1.78-6.24,4.55-7C18.65,12.63,18.08,7.69,16.3,5.16Z"/></clipPath><clipPath id="clip-path-2" transform="translate(-0.64)"><path class="cls-1" d="M38.45,5.16c2-2.8,9.14-2.55,10.65.84A13.21,13.21,0,0,1,49,16.15c3.36,0,5.74,2.12,5.74,4.8v13c0,5.06-4.27,4.2-4.27,4.2C50.11,41.35,49.81,50.42,49,53c-.67,2.21-1.88,2.51-5.2,2.51-1.8,0-5.37.33-6-2.52L36.76,40.84a2.53,2.53,0,0,0,.38-.07,5.24,5.24,0,0,0,4.5-5.11V21c0-3.78-1.78-6.24-4.56-7C36.11,12.63,36.68,7.69,38.45,5.16Z"/></clipPath></defs><title>HP_Support_Community_RGB_Blue_60</title><g id="Layer_2" data-name="Layer 2"><g id="Menu_RGB_blue_60"><g id="HP_Support_Community_RGB_Blue_60"><g class="cls-2"><path class="cls-3" d="M11.28,15.28c-3.53,0-4.94-1.51-4.94-5.22s1.41-5.23,4.94-5.23,4.93,1.5,4.93,5.23S14.81,15.28,11.28,15.28Z" transform="translate(-0.64)"/><path class="cls-4" d="M5.61,23.72v12s0,1.06.07,1.78h0L6.91,50.94c.2,2.05,1,2.85,2.77,2.85h3.19c1.79,0,2.57-.8,2.77-2.85l1.23-13.47h0c.07-.72.07-1.78.07-1.78v-.93a2,2,0,0,0,2,1.84,1.92,1.92,0,0,0,2-1.83V22.21c0-3-1.45-3.79-4-3.79H5.64c-2.54,0-4,.77-4,3.79V34.76a1.93,1.93,0,0,0,2,1.83,2,2,0,0,0,2-1.84Z" transform="translate(-0.64)"/></g><path class="cls-3" d="M27.33,13.21c4.13,0,5.77-1.77,5.77-6.1S31.46,1,27.33,1s-5.76,1.75-5.76,6.11S23.21,13.21,27.33,13.21Z" transform="translate(-0.64)"/><path class="cls-4" d="M34,22.76v14s0,1.23-.08,2.08h0L32.44,54.56c-.23,2.4-1.15,3.33-3.23,3.33H25.47c-2.09,0-3-.93-3.23-3.33L20.8,38.82h0c-.08-.85-.08-2.08-.08-2.08V35.65a2.35,2.35,0,0,1-2.33,2.15,2.25,2.25,0,0,1-2.3-2.14V21c0-3.53,1.69-4.42,4.66-4.42H33.92c3,0,4.67.89,4.67,4.42V35.66a2.26,2.26,0,0,1-2.31,2.14A2.34,2.34,0,0,1,34,35.65Z" transform="translate(-0.64)"/><g class="cls-5"><path class="cls-3" d="M43.47,15.28c3.54,0,4.94-1.51,4.94-5.22S47,4.83,43.47,4.83s-4.92,1.5-4.92,5.23S40,15.28,43.47,15.28Z" transform="translate(-0.64)"/><path class="cls-4" d="M49.15,23.72v12s0,1.06-.07,1.78h0L47.85,50.94c-.2,2.05-1,2.85-2.77,2.85h-3.2c-1.78,0-2.57-.8-2.77-2.85L37.88,37.47h0c-.06-.72-.06-1.78-.06-1.78v-.93a2,2,0,0,1-2,1.84,1.93,1.93,0,0,1-2-1.83V22.21c0-3,1.45-3.79,4-3.79H49.12c2.54,0,4,.77,4,3.79V34.76a1.92,1.92,0,0,1-2,1.83,2,2,0,0,1-2-1.84Z" transform="translate(-0.64)"/></g></g></g></g></svg>