<svg id="Layer_1" data-name="Layer 1" xmlns="http://www.w3.org/2000/svg" viewBox="0 0 55 55"><defs><style>.cls-1{fill:#fff;}</style></defs><title>arrow_icon</title><path class="cls-1" d="M27.5.92A26.58,26.58,0,1,1,.92,27.5,26.58,26.58,0,0,1,27.5.92m0-.92A27.5,27.5,0,1,0,55,27.5,27.5,27.5,0,0,0,27.5,0Z"/><path class="cls-1" d="M21.7,44.31a.44.44,0,0,1-.27-.09.42.42,0,0,1-.05-.59L34.91,27.5,21.38,11.37a.42.42,0,0,1,.05-.59.43.43,0,0,1,.59.06L35.78,27.23a.42.42,0,0,1,0,.54L22,44.16A.41.41,0,0,1,21.7,44.31Z"/></svg>