<?xml version="1.0" encoding="utf-8"?>
<!-- Generator: Adobe Illustrator 24.3.0, SVG Export Plug-In . SVG Version: 6.00 Build 0)  -->
<svg version="1.1" id="Layer_1" xmlns="http://www.w3.org/2000/svg" xmlns:xlink="http://www.w3.org/1999/xlink" x="0px" y="0px"
	 viewBox="0 0 80 80" style="enable-background:new 0 0 80 80;" xml:space="preserve">
<style type="text/css">
	.st0{fill:#165DBA;}
</style>
<path class="st0" d="M40,1.3c21.4,0,38.7,17.3,38.7,38.7S61.4,78.7,40,78.7S1.3,61.4,1.3,40C1.3,18.6,18.6,1.3,40,1.3
	C40,1.3,40,1.3,40,1.3 M40,0C17.9,0,0,17.9,0,40s17.9,40,40,40s40-17.9,40-40S62.1,0,40,0z"/>
<path class="st0" d="M61.4,64.5H18.6V50.2c0-7.8,4.5-8.8,9.2-8.8h24.2c4.8,0,9.2,1.1,9.2,8.8L61.4,64.5z M20,63.1h40V50.2
	c0-6.2-2.9-7.5-7.9-7.5H27.9c-5,0-7.9,1.2-7.9,7.5V63.1z"/>
<path class="st0" d="M54.5,23.4c-0.5-6.6-6.9-11.9-14.7-11.9s-14.2,5.3-14.7,11.9c-1.1,0.1-2.1,1-2,2.2v4.6c0,1.2,1,2.1,2.1,2.2h1.9
	v-9h-0.6c0.5-5.9,6.3-10.5,13.3-10.5s12.8,4.7,13.3,10.6h-0.6v9h0.7c-0.8,4.1-4.3,5.1-9.3,5.2c-0.3-0.5-0.8-0.8-1.4-0.8
	c-0.8,0-1.5,0.7-1.5,1.5c0,0.8,0.7,1.5,1.5,1.5c0.6,0,1.1-0.3,1.4-0.9c3.6,0,9.8-0.5,10.7-6.6c1.1-0.1,2-1,2-2.1v-4.6
	C56.6,24.4,55.7,23.5,54.5,23.4z"/>
<path class="st0" d="M39.8,15.3c-7.9,0-11.3,3.6-11.3,11.9s3.4,11.9,11.3,11.9l0,0c-0.1-0.3-0.1-0.5-0.1-0.8c0-0.2,0-0.4,0.1-0.6
	c-7.1,0-9.9-3-9.9-10.5s2.7-10.6,9.9-10.6s10,2.9,10,10.6c0,4.4-0.9,7.3-3.2,8.9c0.9-0.1,1.7-0.3,2.5-0.6c1.4-1.9,2-4.7,2-8.3
	C51.1,18.8,47.8,15.3,39.8,15.3z"/>
</svg>
