<?xml version="1.0" encoding="utf-8"?>
<!-- Generator: Adobe Illustrator 24.3.0, SVG Export Plug-In . SVG Version: 6.00 Build 0)  -->
<svg version="1.1" id="Layer_1" xmlns="http://www.w3.org/2000/svg" xmlns:xlink="http://www.w3.org/1999/xlink" x="0px" y="0px"
	 viewBox="0 0 80 80" style="enable-background:new 0 0 80 80;" xml:space="preserve">
<style type="text/css">
	.st0{fill:#165DBA;}
</style>
<path class="st0" d="M40,1.3c21.4,0,38.7,17.3,38.7,38.7S61.4,78.7,40,78.7S1.3,61.4,1.3,40C1.3,18.6,18.6,1.3,40,1.3
	C40,1.3,40,1.3,40,1.3 M40,0C17.9,0,0,17.9,0,40s17.9,40,40,40s40-17.9,40-40S62.1,0,40,0z"/>
<path class="st0" d="M40,1.3c21.4,0,38.7,17.3,38.7,38.7S61.4,78.7,40,78.7S1.3,61.4,1.3,40C1.3,18.6,18.6,1.3,40,1.3
	C40,1.3,40,1.3,40,1.3 M40,0C17.9,0,0,17.9,0,40s17.9,40,40,40s40-17.9,40-40S62.1,0,40,0z"/>
<path class="st0" d="M59.8,19.4h-47v31.2c0,1.6,1.4,3,3,3h23.6c-0.2-0.5-0.4-0.9-0.5-1.4h-23c-0.9,0-1.6-0.7-1.6-1.6l0,0V26.2h47.2
	v7.4h1.4V22.4C62.8,20.8,61.4,19.4,59.8,19.4z M59.8,20.8c0.9,0,1.6,0.7,1.6,1.6v2.3H14.2v-4"/>
<rect x="19.4" y="32.1" class="st0" width="17.7" height="1.4"/>
<rect x="19.4" y="39.1" class="st0" width="17.7" height="1.4"/>
<path class="st0" d="M56,34.3c-8.4,0-15.2,6.8-15.2,15.2c0,8.4,6.8,15.2,15.2,15.2s15.2-6.8,15.2-15.2l0,0
	C71.2,41,64.4,34.3,56,34.3C56,34.3,56,34.3,56,34.3z M56,63c-7.5,0-13.5-6-13.5-13.5C42.5,42,48.6,36,56,36c7.4,0,13.5,6,13.5,13.4
	C69.5,56.9,63.5,63,56,63C56,63,56,63,56,63z"/>
<polygon class="st0" points="56.9,39.7 55.2,39.7 55.2,50.3 62.1,50.3 62.1,48.6 56.9,48.6 "/>
</svg>
