<svg xmlns="http://www.w3.org/2000/svg" width="30" height="30" fill="none" viewBox="0 0 30 30">
    <path stroke="#165DBA" stroke-width="1.5" d="M15 29.25c7.87 0 14.25-6.38 14.25-14.25S22.87.75 15 .75.75 7.13.75 15 7.13 29.25 15 29.25z"/>
    <path fill="#165DBA" d="M22.215 9.347H20.3V6.16H8.826v3.188H5v8.927c0 .508.202.994.56 1.353.36.359.846.56 1.353.56h1.275v-1.276H6.913c-.17 0-.331-.067-.451-.187s-.187-.282-.187-.45v-7.652h15.94c.084 0 .167.017.244.049.078.032.148.079.207.138.06.06.106.13.138.207.033.077.049.16.049.244v7.651H20.94v1.275h3.188V11.26c0-.507-.202-.993-.56-1.352-.36-.358-.846-.56-1.353-.56zm-3.188 0H10.1V7.434h8.927v1.913z"/>
    <path fill="#165DBA" d="M9.463 23.693c0 .338.134.663.373.902.24.239.564.373.902.373h8.925v-10.52h-10.2v9.245zm1.275-7.97h7.651v7.97h-7.651v-7.97z"/>
    <path fill="#165DBA" d="M12.014 17.636h5.1v1.275h-5.1v-1.275zM12.014 20.186h5.1v1.275h-5.1v-1.275z"/>
</svg>
