<?xml version="1.0" encoding="utf-8"?>
<!-- Generator: Adobe Illustrator 24.3.0, SVG Export Plug-In . SVG Version: 6.00 Build 0)  -->
<svg version="1.1" id="Layer_1" xmlns="http://www.w3.org/2000/svg" xmlns:xlink="http://www.w3.org/1999/xlink" x="0px" y="0px"
	 viewBox="0 0 80 80" style="enable-background:new 0 0 80 80;" xml:space="preserve">
<style type="text/css">
	.st0{fill:#165DBA;}
	.st1{fill:#FFFFFF;}
</style>
<path class="st0" d="M40,0C17.9,0,0,17.9,0,40s17.9,40,40,40s40-17.9,40-40S62.1,0,40,0z"/>
<g>
	<path class="st1" d="M67.6,55.2V20.8c0-1.8-1.4-3.2-3.2-3.2h-52v34.4c0,1.7,1.4,3.2,3.1,3.2c0,0,0,0,0,0h19.5v5.7h-7.9v1.5h25.9
		v-1.5h-8.2v-5.7H67.6z M13.9,52.1V19.1h50.5c0.9,0,1.7,0.8,1.7,1.7l0,0v32.9H15.6C14.7,53.8,13.9,53,13.9,52.1z M43.4,60.9h-6.8
		v-5.7h6.8L43.4,60.9z"/>
	<rect x="19.5" y="34.7" class="st1" width="1.5" height="14.4"/>
	<rect x="23.3" y="28.8" class="st1" width="1.5" height="20.3"/>
	<rect x="27.1" y="30.7" class="st1" width="1.5" height="18.4"/>
	<rect x="30.9" y="23.2" class="st1" width="1.5" height="25.9"/>
	<path class="st1" d="M56.9,30.2c0-2.4-1.2-4.6-3.2-6l0,0l-1.3-0.7l0,0c-3.7-1.6-8,0.2-9.6,3.9c-1.6,3.7,0.2,8,3.9,9.6
		c0.9,0.4,1.9,0.6,2.9,0.6c0.5,0,1-0.1,1.5-0.2l0,0l1.4-0.5l0,0C55.1,35.7,56.9,33.1,56.9,30.2z M55.4,30.2v0.4l-4.7-0.7l2.3-4.4
		C54.5,26.5,55.4,28.3,55.4,30.2L55.4,30.2z M51.7,24.7L49.4,29l-3.1-3.7C47.9,24.3,49.9,24,51.7,24.7z M49.6,36
		c-3.2,0-5.8-2.6-5.8-5.8c0-1.4,0.5-2.8,1.4-3.8l3.7,4.4l1.7,5.2C50.3,35.9,49.9,36,49.6,36z M52,35.4l-1.4-4.2l4.5,0.7
		C54.6,33.5,53.5,34.8,52,35.4z"/>
	<path class="st1" d="M61.3,49H37.4v-7.8h23.9V49z M38.9,47.5h20.9v-4.9H38.9V47.5z"/>
</g>
</svg>
