<svg xmlns="http://www.w3.org/2000/svg" id="calls_to_action_sign_in_20" width="23" height="23" viewBox="0 0 23 23">
    <defs>
        <style>
            .cls-1{fill:none}.cls-3{fill:#165dba}
        </style>
    </defs>
    <circle id="Ellipse_2062" cx="11.5" cy="11.5" r="11.5" class="cls-1"/>
    <circle id="Ellipse_2063" cx="10.5" cy="10.5" r="10.5" fill="none" stroke="#165dba" stroke-width="1.5px" transform="translate(1 1)"/>
    <path id="Path_6437" d="M17.16 17.55v-3.43a2.59 2.59 0 0 0-2.58-2.58h-6A2.57 2.57 0 0 0 6 14.12v3.43z" class="cls-1"/>
    <path id="Path_6438" d="M15.16 15.55v-1.43a.58.58 0 0 0-.58-.58h-6a.58.58 0 0 0-.57.58v1.43h7.16m2 2H6v-3.43a2.57 2.57 0 0 1 2.57-2.58h6a2.58 2.58 0 0 1 2.58 2.58z" class="cls-3"/>
    <path id="Path_6439" d="M11.57 10.79c2 0 2.74-.84 2.74-2.89S13.53 5 11.57 5s-2.73.83-2.73 2.9.78 2.89 2.73 2.89z" class="cls-1"/>
    <path id="Path_6440" d="M11.57 8.79a2.1 2.1 0 0 0 .65-.07 2.71 2.71 0 0 0 .09-.82 2.8 2.8 0 0 0-.09-.83 2.16 2.16 0 0 0-.65-.07 2 2 0 0 0-.63.07 2.35 2.35 0 0 0-.1.83 2.28 2.28 0 0 0 .1.82 2 2 0 0 0 .63.07m0 2c-2 0-2.73-.84-2.73-2.89S9.62 5 11.57 5s2.74.83 2.74 2.9-.78 2.89-2.74 2.89z" class="cls-3"/>
</svg>
