<?xml version="1.0" encoding="utf-8"?>
<!-- Generator: Adobe Illustrator 23.0.1, SVG Export Plug-In . SVG Version: 6.00 Build 0)  -->
<svg version="1.1" id="Layer_1" xmlns="http://www.w3.org/2000/svg" xmlns:xlink="http://www.w3.org/1999/xlink" x="0px" y="0px"
	 viewBox="0 0 70 70" style="enable-background:new 0 0 70 70;" xml:space="preserve">
<style type="text/css">
	.st0{fill:#CCCCCC;}
</style>
<path class="st0" d="M53.8,10.8H5v32.4c0,1.7,1.4,3.1,3.1,3.2h24.4c-0.2-0.5-0.4-1-0.6-1.5H8.1c-0.9,0-1.7-0.8-1.7-1.7l0,0V17.9h49
	v7.7h0.8h0.7V14C56.9,12.3,55.5,10.9,53.8,10.8z M53.8,12.3c0.9,0,1.7,0.8,1.7,1.7v2.4h-49v-4.1"/>
<rect x="11.9" y="24" class="st0" width="18.4" height="1.5"/>
<rect x="11.9" y="31.3" class="st0" width="18.4" height="1.5"/>
<rect x="11.9" y="31.3" class="st0" width="18.4" height="1.5"/>
<path class="st0" d="M49.8,26.3c-8.7,0-15.7,7.1-15.7,15.8s7.1,15.7,15.8,15.7S65.6,50.7,65.6,42c0,0,0,0,0,0
	C65.6,33.3,58.5,26.3,49.8,26.3z M49.8,56.1c-7.7,0-14-6.3-14-14s6.3-14,14-14s14,6.3,14,14C63.8,49.8,57.6,56,49.8,56.1z"/>
<polygon class="st0" points="50.7,31.9 49,31.9 49,42.9 56.1,42.9 56.1,41.2 50.7,41.2 "/>
</svg>
