<svg xmlns="http://www.w3.org/2000/svg" width="30" height="31" fill="none" viewBox="0 0 30 31">
    <path fill="#165DBA" d="M15 30.256c8.284 0 15-6.716 15-15 0-8.284-6.716-15-15-15-8.284 0-15 6.716-15 15 0 8.284 6.716 15 15 15z"/>
    <path fill="#165DBA" stroke="#165DBA" stroke-width="1.5" d="M15 29.506c7.87 0 14.25-6.38 14.25-14.25S22.87 1.006 15 1.006.75 7.386.75 15.256 7.13 29.506 15 29.506z"/>
    <path fill="#fff" d="M23.48 12.187h-5.476v8.555c0 .363.144.711.401.968s.605.4.968.4h5.476v-8.554c0-.363-.144-.711-.4-.968-.258-.257-.606-.401-.969-.401zm0 8.555h-1.369v-4.448h-1.369v4.449h-1.369v-7.187h4.107v7.186z"/>
    <path fill="#fff" d="M13.213 18.004H7.051c-.181 0-.355-.072-.484-.2-.128-.129-.2-.303-.2-.484V9.107h13.689c.09 0 .179.017.262.051.083.034.159.084.222.148.064.063.115.138.15.221.034.083.052.172.052.262v1.029h1.369v-1.03c0-.543-.216-1.065-.6-1.45-.385-.384-.907-.6-1.451-.6H5v9.582c0 .544.216 1.065.6 1.45.385.385.907.6 1.451.6h6.16v1.368H7.738v1.369h8.9v-1.37h-2.054v-1.364h2.051v-1.37h-3.422z"/>
</svg>
