<svg xmlns="http://www.w3.org/2000/svg" width="29.8" height="29.8" viewBox="0 0 29.8 29.8">
    <defs>
        <style>
            .prefix__cls-2{fill:#fff}
        </style>
    </defs>
    <g id="prefix__PFinder_icon_30__PFinder_Printer_Blue" transform="translate(-.1 -.1)">
        <circle id="prefix__Ellipse_2199" cx="14.9" cy="14.9" r="14.9" fill="#0096d6" data-name="Ellipse 2199" transform="translate(.1 .1)"/>
        <g id="prefix__Group_11375" data-name="Group 11375">
            <path id="prefix__Path_7174" d="M23.1 8.4h-2V5H8.9v3.4h-4v9.4a2.006 2.006 0 0 0 2 2h1.3v-1.3H6.9a.684.684 0 0 1-.7-.7v-8H23a.684.684 0 0 1 .7.7v8.1h-2v1.3h3.4v-9.4a2.03 2.03 0 0 0-2-2.1zm-3.4 0h-9.4v-2h9.4z" class="prefix__cls-2" data-name="Path 7174"/>
            <path id="prefix__Path_7175" d="M9.6 23.6a1.324 1.324 0 0 0 1.3 1.3h9.4V13.8H9.6zm1.4-8.5h8v8.4h-8z" class="prefix__cls-2" data-name="Path 7175"/>
            <path id="prefix__Rectangle_5857" d="M0 0H5.4V1.3H0z" class="prefix__cls-2" data-name="Rectangle 5857" transform="translate(12.3 17.2)"/>
            <path id="prefix__Rectangle_5858" d="M0 0H5.4V1.3H0z" class="prefix__cls-2" data-name="Rectangle 5858" transform="translate(12.3 19.9)"/>
        </g>
    </g>
</svg>
