<svg xmlns="http://www.w3.org/2000/svg" width="29.8" height="29.8" viewBox="0 0 29.8 29.8">
    <defs>
        <style>
            .prefix__cls-2{fill:#fff}
        </style>
    </defs>
    <g id="prefix__PFinder_icon_30__PFinder_DesktopBlue" transform="translate(-.1 -.1)">
        <circle id="prefix__Ellipse_2202" cx="14.9" cy="14.9" r="14.9" fill="#0096d6" data-name="Ellipse 2202" transform="translate(.1 .1)"/>
        <g id="prefix__Group_11378" data-name="Group 11378">
            <path id="prefix__Path_7178" d="M23.6 12.5h-5.5v8.6a1.367 1.367 0 0 0 1.4 1.4H25v-8.6a1.367 1.367 0 0 0-1.4-1.4zm0 8.6h-1.4v-4.5h-1.4v4.5h-1.4v-7.2h4.1v7.2z" class="prefix__cls-2" data-name="Path 7178"/>
            <path id="prefix__Path_7179" d="M7.1 18.4a.684.684 0 0 1-.7-.7V9.4h13.8a.684.684 0 0 1 .7.7v1h1.4v-1A2.258 2.258 0 0 0 20.2 8H5v9.6a2.112 2.112 0 0 0 2.1 2.1h6.2v1.4H7.8v1.4h8.9v-1.4h-2.1v-1.4h2.1v-1.4H7.1z" class="prefix__cls-2" data-name="Path 7179"/>
        </g>
    </g>
</svg>
