<svg xmlns="http://www.w3.org/2000/svg" width="60" height="60" viewBox="0 0 60 60">
    <defs>
        <style>
            .cls-1{fill:#fff;stroke:#707070}.cls-2{fill:none}.cls-3{clip-path:url(#clip-path)}.cls-4{clip-path:url(#clip-path-2)}.cls-5{fill:#0096d6}
        </style>
        <clipPath id="clip-path">
            <path d="M0 0h60v60H0z" class="cls-2"/>
        </clipPath>
        <clipPath id="clip-path-2">
            <path id="Rectangle_2" d="M0 0h60v60H0z" class="cls-1" data-name="Rectangle 2" transform="translate(90 45)"/>
        </clipPath>
    </defs>
    <g id="Products:_Printer_60" class="cls-3" data-name="Products: Printer 60">
        <g id="Products:_Printer_60-2" class="cls-4" data-name="Products: Printer 60" transform="translate(-90 -45)">
            <g id="Printer_RGB_blue_60" transform="translate(90 45.879)">
                <g id="Feedback_RGB_blue_60">
                    <g id="Printer_RGB_blue_60-2" data-name="Printer_RGB_blue_60">
                        <path id="Path_54" d="M56.081 7.032h-7.219V0H11.138v7.032H0v27.952a3.929 3.929 0 0 0 3.929 3.929h5.549v-1.964H3.929a1.964 1.964 0 0 1-1.964-1.964V9h54.116a1.964 1.964 0 0 1 1.964 1.964v25.965h-7.533v1.964H60V10.951a3.929 3.929 0 0 0-3.919-3.919zM13.1 1.964h33.8v5.068H13.1z" class="cls-5" data-name="Path 54"/>
                        <path id="Path_55" d="M11.138 47.144l10.224 11.1h27.5V26.97H11.138zm9.969 7.906L14.3 47.674h4.852a1.964 1.964 0 0 1 1.964 1.964zM46.9 28.925v27.353H23.071v-6.64a3.929 3.929 0 0 0-3.929-3.929H13.1V28.934z" class="cls-5" data-name="Path 55"/>
                        <path id="Rectangle_65" d="M0 0h24.623v1.964H0z" class="cls-5" data-name="Rectangle 65" transform="translate(17.689 34.002)"/>
                        <path id="Rectangle_66" d="M0 0h24.623v1.964H0z" class="cls-5" data-name="Rectangle 66" transform="translate(17.689 41.035)"/>
                    </g>
                </g>
            </g>
        </g>
    </g>
</svg>
