<?xml version="1.0" encoding="utf-8"?>
<!-- Generator: Adobe Illustrator 23.0.1, SVG Export Plug-In . SVG Version: 6.00 Build 0)  -->
<svg version="1.1" id="Layer_1" xmlns="http://www.w3.org/2000/svg" xmlns:xlink="http://www.w3.org/1999/xlink" x="0px" y="0px"
	 viewBox="0 0 20 20" style="enable-background:new 0 0 20 20;" xml:space="preserve">
<style type="text/css">
	.st0{fill:#FDFEFF;}
</style>
<path class="st0" d="M17.9,15.8l-3.2-3.2c0.8-1.1,1.3-2.5,1.3-3.9C15.9,5,13,2,9.3,2S2.6,5,2.6,8.6s3,6.6,6.6,6.6
	c1.5,0,2.8-0.5,3.9-1.3l3.2,3.2c0.2,0.2,0.5,0.3,0.7,0.3s0.5-0.1,0.7-0.3C18.3,16.8,18.3,16.2,17.9,15.8z M9.3,13.3
	c-2.6,0-4.6-2.1-4.6-4.6C4.6,6.1,6.7,4,9.3,4s4.6,2.1,4.6,4.6C13.9,11.2,11.9,13.3,9.3,13.3z"/>
</svg>
