<svg xmlns="http://www.w3.org/2000/svg" width="198" height="198" viewBox="0 0 198 198">
    <defs>
        <linearGradient id="linear-gradient" x1=".3" x2="1" y1=".738" y2="-.501" gradientUnits="objectBoundingBox">
            <stop offset="0" stop-color="#7d3894"/>
            <stop offset="1" stop-color="#c0b6f2"/>
        </linearGradient>
        <filter id="Ellipse_2284" width="198" height="198" x="0" y="0" filterUnits="userSpaceOnUse">
            <feOffset/>
            <feGaussianBlur result="blur" stdDeviation="10"/>
            <feFlood flood-opacity=".231"/>
            <feComposite in2="blur" operator="in"/>
            <feComposite in="SourceGraphic"/>
        </filter>
        <style>
            .cls-2{fill:none;stroke-miterlimit:10}.cls-3,.cls-4{stroke:none}.cls-4{fill:#fff}
        </style>
    </defs>
    <g id="Group_11618" transform="translate(-1301 -1211)">
        <g filter="url(#Ellipse_2284)" transform="translate(1301 1211)">
            <circle id="Ellipse_2284-2" cx="69" cy="69" r="69" fill="url(#linear-gradient)" transform="translate(30 30)"/>
        </g>
        <g id="Group_11514" transform="translate(905 -3116)">
            <g id="Group_11503" transform="translate(479.66 4408.651)">
                <g id="Path_7273" class="cls-2">
                    <path d="M493 4438.849A16.849 16.849 0 1 1 509.84 4422a16.863 16.863 0 0 1-16.84 16.849z" class="cls-3" transform="translate(-476.159 -4405.152)"/>
                    <path d="M492.999 4436.85c8.183 0 14.841-6.662 14.841-14.85 0-8.188-6.658-14.848-14.841-14.848s-14.84 6.66-14.84 14.848 6.657 14.85 14.84 14.85m0 2c-9.286 0-16.84-7.559-16.84-16.85 0-9.29 7.554-16.848 16.84-16.848 9.285 0 16.841 7.557 16.841 16.848 0 9.291-7.556 16.85-16.841 16.85z" class="cls-4" transform="translate(-476.159 -4405.152)"/>
                </g>
            </g>
            <g id="Path_7274" class="cls-2">
                <path d="M531.388 4418.763l-8.829-2.27a27.5 27.5 0 0 0-1.262-3.052l4.637-7.848a2.148 2.148 0 0 0-.33-2.611l-6.587-6.586a2.145 2.145 0 0 0-2.61-.329l-7.84 4.632a27.483 27.483 0 0 0-3.04-1.262l-2.287-8.828a2.148 2.148 0 0 0-2.08-1.609h-9.32a2.149 2.149 0 0 0-2.079 1.608l-2.287 8.828a27.315 27.315 0 0 0-3.021 1.252l-7.858-4.625a2.148 2.148 0 0 0-2.607.332l-6.591 6.591a2.149 2.149 0 0 0-.332 2.608l4.629 7.866a27.615 27.615 0 0 0-1.245 3.009l-8.84 2.291a2.15 2.15 0 0 0-1.609 2.08v9.32a2.149 2.149 0 0 0 1.608 2.08l8.84 2.291a27.607 27.607 0 0 0 1.245 3.009l-4.629 7.867a2.148 2.148 0 0 0 .332 2.607l6.591 6.591a2.147 2.147 0 0 0 2.607.332l7.858-4.624a27.512 27.512 0 0 0 3.043 1.259l2.268 8.817a2.147 2.147 0 0 0 2.079 1.612h9.315a2.147 2.147 0 0 0 2.079-1.612l2.268-8.817a27.309 27.309 0 0 0 3.062-1.27l7.84 4.632a2.146 2.146 0 0 0 2.61-.33l6.587-6.587a2.146 2.146 0 0 0 .33-2.61l-4.637-7.848a27.451 27.451 0 0 0 1.262-3.052l8.829-2.27a2.148 2.148 0 0 0 1.612-2.079v-9.315a2.148 2.148 0 0 0-1.611-2.08z" class="cls-3"/>
                <path d="M491.84 4391c-.066 0-.127.047-.143.11l-2.287 8.828-.269 1.036-1.01.351c-.985.343-1.927.734-2.8 1.16l-.966.473-.927-.546-7.859-4.625c-.023-.013-.046-.02-.072-.02-.029 0-.07.008-.106.043l-6.59 6.59c-.048.048-.057.122-.023.18l4.629 7.867.544.925-.47.964c-.424.872-.812 1.811-1.153 2.792l-.352 1.01-1.036.268-8.838 2.29c-.065.017-.112.077-.112.144v9.32c0 .068.046.127.11.143l8.84 2.291 1.036.268.351 1.01c.343.982.73 1.921 1.154 2.791l.47.965-.544.925-4.63 7.867c-.033.058-.024.132.023.18l6.59 6.588c.036.037.078.044.106.044.026 0 .05-.006.074-.02l7.858-4.624.926-.545.965.471c.888.433 1.837.825 2.822 1.167l1.014.352.267 1.04 2.268 8.816c.017.065.076.111.143.111h9.314c.067 0 .126-.046.143-.11l2.268-8.817.267-1.04 1.015-.352c.986-.342 1.941-.738 2.838-1.176l.968-.474.928.549 7.842 4.632c.023.014.046.02.073.02.028 0 .068-.007.104-.042l6.587-6.588c.047-.047.056-.12.022-.178l-4.637-7.848-.547-.927.471-.967c.434-.89.827-1.842 1.17-2.83l.351-1.015 1.04-.267 8.829-2.27c.065-.017.111-.075.111-.142v-9.315c0-.068-.046-.126-.11-.143l-8.83-2.27-1.04-.267-.351-1.015c-.342-.988-.736-1.94-1.17-2.83l-.471-.967.547-.927 4.637-7.848c.034-.058.025-.132-.022-.18l-6.587-6.586c-.036-.035-.076-.042-.104-.042-.026 0-.05.006-.075.021l-7.84 4.632-.927.547-.968-.472c-.897-.438-1.846-.832-2.819-1.17l-1.011-.351-.269-1.037-2.287-8.827c-.017-.065-.076-.111-.143-.111h-9.32m0-2h9.32c.98 0 1.833.662 2.08 1.608l2.286 8.829c1.043.362 2.059.782 3.04 1.262l7.841-4.632c.34-.201.717-.3 1.092-.3.555 0 1.105.216 1.518.629l6.587 6.586c.692.693.828 1.768.33 2.611l-4.637 7.848c.48.986.899 2.006 1.262 3.053l8.829 2.27c.949.244 1.612 1.1 1.612 2.079v9.315c0 .979-.663 1.834-1.612 2.079l-8.83 2.27c-.362 1.047-.78 2.066-1.261 3.052l4.637 7.848c.498.843.362 1.918-.33 2.61l-6.587 6.587c-.414.414-.963.628-1.518.628-.375 0-.752-.097-1.092-.298l-7.84-4.633c-.99.484-2.012.906-3.062 1.27l-2.268 8.817c-.245.949-1.1 1.612-2.08 1.612h-9.314c-.98 0-1.835-.663-2.08-1.612l-2.268-8.817c-1.042-.362-2.06-.78-3.042-1.26l-7.859 4.625c-.339.2-.715.296-1.088.296-.555 0-1.105-.215-1.52-.628l-6.59-6.59c-.69-.693-.828-1.764-.332-2.608l4.63-7.867c-.474-.972-.886-1.978-1.245-3.009l-8.84-2.29c-.947-.247-1.609-1.101-1.609-2.08v-9.32c0-.978.662-1.833 1.608-2.08l8.84-2.29c.36-1.03.772-2.037 1.245-3.01l-4.629-7.865c-.496-.845-.359-1.916.332-2.608l6.59-6.591c.415-.414.965-.629 1.52-.629.374 0 .75.097 1.088.297l7.859 4.624c.975-.477 1.985-.891 3.02-1.251l2.288-8.829c.246-.946 1.101-1.608 2.08-1.608z" class="cls-4"/>
            </g>
        </g>
    </g>
</svg>
