<svg xmlns="http://www.w3.org/2000/svg" width="198" height="198" viewBox="0 0 198 198">
    <defs>
        <linearGradient id="linear-gradient" x1=".3" x2="1" y1=".738" y2="-.501" gradientUnits="objectBoundingBox">
            <stop offset="0" stop-color="#7d3894"/>
            <stop offset="1" stop-color="#c0b6f2"/>
        </linearGradient>
        <filter id="Ellipse_2280" width="198" height="198" x="0" y="0" filterUnits="userSpaceOnUse">
            <feOffset/>
            <feGaussianBlur result="blur" stdDeviation="10"/>
            <feFlood flood-opacity=".231"/>
            <feComposite in2="blur" operator="in"/>
            <feComposite in="SourceGraphic"/>
        </filter>
        <style>
            .cls-2{fill:none;stroke-miterlimit:10;stroke-width:2px;stroke:#fff}
        </style>
    </defs>
    <g id="Group_11615" transform="translate(-530 -1243)">
        <g filter="url(#Ellipse_2280)" transform="translate(530 1243)">
            <circle id="Ellipse_2280-2" cx="69" cy="69" r="69" fill="url(#linear-gradient)" transform="translate(30 30)"/>
        </g>
        <g id="Group_11480" transform="translate(-416 -7728.993)">
            <path id="Path_7260" d="M1039.68 9083.568H1010v-13.886a13.1 13.1 0 0 1 13.1-13.1h1.77a20.727 20.727 0 0 1-.008-2.408c.641-11.863 11.586-20.283 23.406-19.07 16.647 1.706 17.051 17.192 17.051 17.192a15.977 15.977 0 0 1 14.25 15.883 15.57 15.57 0 0 1-13.5 15.385h-15.594" class="cls-2" transform="translate(0 .001)"/>
            <path id="Line_7371" d="M0 0L0 44" class="cls-2" transform="translate(1045 9057.993)"/>
            <path id="Path_7261" fill="#fff" stroke="#fff" d="M1038.965 9090.548l5.392-9.535a1.349 1.349 0 0 0-1.174-2.013H1032.4a1.349 1.349 0 0 0-1.174 2.013l5.392 9.535a1.349 1.349 0 0 0 2.347 0z" transform="translate(7.347 15.362)"/>
        </g>
    </g>
</svg>
