<svg xmlns="http://www.w3.org/2000/svg" width="198" height="198" viewBox="0 0 198 198">
    <defs>
        <linearGradient id="dy7pzkt9cb" x1=".3" x2="1" y1=".738" y2="-.501" gradientUnits="objectBoundingBox">
            <stop offset="0" stop-color="#7d3894"/>
            <stop offset="1" stop-color="#c0b6f2"/>
        </linearGradient>
        <filter id="67o7lma5va" width="198" height="198" x="0" y="0" filterUnits="userSpaceOnUse">
            <feOffset/>
            <feGaussianBlur result="blur" stdDeviation="10"/>
            <feFlood flood-opacity=".231"/>
            <feComposite in2="blur" operator="in"/>
            <feComposite in="SourceGraphic"/>
        </filter>
    </defs>
    <g>
        <g filter="url(#67o7lma5va)" transform="translate(-1095 -1243) translate(1095 1243)">
            <circle cx="69" cy="69" r="69" fill="url(#dy7pzkt9cb)" transform="translate(30 30)"/>
        </g>
        <g>
            <g>
                <g>
                    <g>
                        <g fill="none" stroke-miterlimit="10">
                            <path d="M3214.976 9071.191a13.261 13.261 0 1 1 18.75 0 13.272 13.272 0 0 1-18.75 0z" transform="translate(-1095 -1243) translate(-2036 -7729.876) translate(3195.001 9032.876) translate(22.11 21.542) translate(-3211.101 -9048.563)"/>
                            <path fill="#fff" d="M3224.346 9073.066c3.013 0 5.841-1.17 7.965-3.293 4.391-4.39 4.393-11.534.004-15.922-2.12-2.12-4.946-3.289-7.955-3.289-3.013 0-5.841 1.17-7.965 3.293-2.124 2.124-3.294 4.952-3.294 7.963-.001 3.011 1.167 5.837 3.289 7.96 2.12 2.12 4.946 3.288 7.956 3.288m0 2c-3.394 0-6.787-1.29-9.37-3.875-5.168-5.168-5.167-13.578.005-18.75 2.585-2.586 5.982-3.879 9.379-3.879 3.393 0 6.787 1.292 9.37 3.875 5.168 5.168 5.166 13.58-.004 18.75-2.586 2.586-5.984 3.88-9.38 3.88z" transform="translate(-1095 -1243) translate(-2036 -7729.876) translate(3195.001 9032.876) translate(22.11 21.542) translate(-3211.101 -9048.563)"/>
                        </g>
                    </g>
                    <path fill="none" stroke="#fff" stroke-miterlimit="10" stroke-width="2px" d="M3221.093 9092.1l-8.6 7.371a1.375 1.375 0 0 1-1.912-.122l-8.4-9.283a2.1 2.1 0 0 1-.323-2.557l4.477-7.579a26.5 26.5 0 0 1-1.222-2.946l-8.534-2.213a2.1 2.1 0 0 1-1.577-2.036v-8.993a2.1 2.1 0 0 1 1.577-2.036l8.544-2.216a26.684 26.684 0 0 1 1.208-2.913l-4.477-7.61a2.1 2.1 0 0 1 .326-2.554l6.358-6.36a2.1 2.1 0 0 1 2.555-.324l7.611 4.477a26.508 26.508 0 0 1 2.913-1.208l2.215-8.543a2.1 2.1 0 0 1 2.037-1.578h8.993a2.1 2.1 0 0 1 2.037 1.578l2.212 8.533a26.468 26.468 0 0 1 2.927 1.211l7.6-4.47a2.105 2.105 0 0 1 2.556.324l6.358 6.36a2.1 2.1 0 0 1 .326 2.554l-4.472 7.6a26.59 26.59 0 0 1 1.22 2.948l8.527 2.192a2.1 2.1 0 0 1 1.579 2.037v8.989a2.1 2.1 0 0 1-1.579 2.037l-8.537 2.193a26.574 26.574 0 0 1-1.225 2.956l4.483 7.59a2.1 2.1 0 0 1-.323 2.557l-7.791 8.051a1.372 1.372 0 0 1-1.785.162l-8.651-6.179" transform="translate(-1095 -1243) translate(-2036 -7729.876) translate(3195.001 9032.876) translate(-3195.001 -9032.876)"/>
                </g>
            </g>
            <g>
                <g>
                    <g>
                        <path fill="none" stroke="#fff" stroke-linejoin="round" stroke-width="2px" d="M0 0L0 15" transform="translate(-1095 -1243) translate(-2036 -7729.876) translate(3223.84 9086.436) translate(6.867) translate(.295 .44)"/>
                    </g>
                </g>
                <path fill="#fff" stroke="#fff" d="M3224.2 9091.88l5.629-9.955a1.373 1.373 0 0 0-1.195-2.049h-11.261a1.373 1.373 0 0 0-1.195 2.049l5.63 9.955a1.374 1.374 0 0 0 2.392 0z" transform="translate(-1095 -1243) translate(-2036 -7729.876) translate(3223.84 9086.436) translate(-3216 -9068.89)"/>
            </g>
        </g>
    </g>
</svg>
