<svg xmlns="http://www.w3.org/2000/svg" width="198" height="198" viewBox="0 0 198 198">
    <defs>
        <linearGradient id="linear-gradient" x1=".3" x2="1" y1=".738" y2="-.501" gradientUnits="objectBoundingBox">
            <stop offset="0" stop-color="#7d3894"/>
            <stop offset="1" stop-color="#c0b6f2"/>
        </linearGradient>
        <filter id="Ellipse_2282" width="198" height="198" x="0" y="0" filterUnits="userSpaceOnUse">
            <feOffset/>
            <feGaussianBlur result="blur" stdDeviation="10"/>
            <feFlood flood-opacity=".231"/>
            <feComposite in2="blur" operator="in"/>
            <feComposite in="SourceGraphic"/>
        </filter>
        <style>
            .cls-3{fill:none;stroke:#fff;stroke-width:2px;stroke-miterlimit:10}.cls-5{stroke:none}
        </style>
    </defs>
    <g id="Group_11616" transform="translate(-861 -1243)">
        <g filter="url(#Ellipse_2282)" transform="translate(861 1243)">
            <circle id="Ellipse_2282-2" cx="69" cy="69" r="69" fill="url(#linear-gradient)" transform="translate(30 30)"/>
        </g>
        <g id="Group_11479" transform="translate(456 -9333.646)">
            <g id="Group_11478" transform="translate(517.915 10657.656)">
                <g id="Group_11477">
                    <g id="Group_11476" transform="translate(4.7 4.713)"/>
                    <g id="Ellipse_2279" class="cls-3">
                        <circle cx="14.978" cy="14.978" r="14.978" class="cls-5"/>
                        <circle cx="14.978" cy="14.978" r="13.978" fill="none"/>
                    </g>
                </g>
                <path id="Line_7370" d="M0 0L19.471 19.471" class="cls-3" transform="translate(5.242 5.242)"/>
            </g>
            <g id="Path_7259" fill="none" stroke-miterlimit="10">
                <path d="M511.924 10697.035v-47.242c0-6.33-6.072-7.7-9.7-4.443l-18.322 15.3H461v25.461h22.905l18.322 15.3c3.682 3.364 9.697 1.819 9.697-4.376z" class="cls-5"/>
                <path fill="#fff" d="M506.536 10703.152v-2c.907 0 1.73-.332 2.315-.933.702-.721 1.073-1.822 1.073-3.184v-47.242c0-1.39-.371-2.506-1.074-3.225-.58-.594-1.402-.922-2.314-.922-1.06 0-2.116.423-2.973 1.192l-.026.023-.028.024-18.322 15.302-.556.465H463v21.461h21.631l.556.465 18.322 15.303.034.028.032.03c.858.783 1.91 1.213 2.96 1.213v2m0 0c-1.484 0-3.035-.575-4.308-1.736l-18.322-15.303H461v-25.46h22.905l18.322-15.303c1.26-1.131 2.816-1.704 4.31-1.704 2.802 0 5.387 2.018 5.387 6.147v47.242c0 4.055-2.576 6.117-5.388 6.117z"/>
            </g>
        </g>
    </g>
</svg>
