<svg xmlns="http://www.w3.org/2000/svg" id="Play-btn-thumb-light" width="24" height="24" viewBox="0 0 24 24">
    <defs>
        <style>
            .cls-1{fill:rgba(0,0,0,.5)}.cls-2{fill:#fff}
        </style>
    </defs>
    <circle id="element" cx="12" cy="12" r="12" class="cls-1"/>
    <path id="element-2" d="M12 24A12 12 0 0 1 3.515 3.515a12 12 0 1 1 16.97 16.97A11.922 11.922 0 0 1 12 24zM12 .96a11.04 11.04 0 0 0-7.806 18.846A11.04 11.04 0 1 0 19.806 4.194 10.968 10.968 0 0 0 12 .96z" class="cls-2" data-name="element"/>
    <path id="element-3" d="M.755 8.672A.5.5 0 0 1 0 8.242V.878a.5.5 0 0 1 .755-.43l6.2 3.682a.5.5 0 0 1 0 .86z" class="cls-2" data-name="element" transform="translate(9.36 7.44)"/>
</svg>
