<svg xmlns="http://www.w3.org/2000/svg" width="155" height="155" viewBox="0 0 155 155">
    <defs>
        <style>
            .cls-1{fill:#fff;stroke:#707070}.cls-2{fill:none}.cls-3{clip-path:url(#clip-path)}.cls-4{clip-path:url(#clip-path-2)}.cls-5{fill:#0096d6}
        </style>
        <clipPath id="clip-path">
            <path d="M0 0h155v155H0z" class="cls-2"/>
        </clipPath>
        <clipPath id="clip-path-2">
            <path id="Rectangle_3" d="M0 0h155v155H0z" class="cls-1" data-name="Rectangle 3"/>
        </clipPath>
    </defs>
    <g id="System:_Information_120" class="cls-3" data-name="System: Information 120">
        <g id="System:_Information_120-2" class="cls-4" data-name="System: Information 120">
            <g id="Information_RGB_blue_120">
                <g id="Feedback_RGB_blue_60">
                    <g id="Information_RGB_blue_120-2" data-name="Information_RGB_blue_120">
                        <path id="Path_498" d="M77.5 4.115A73.385 73.385 0 1 1 4.115 77.5 73.385 73.385 0 0 1 77.5 4.115M77.5 0a77.523 77.523 0 1 0 .014 0z" class="cls-5" data-name="Path 498"/>
                        <path id="Path_499" d="M60.626 35.329a5.157 5.157 0 0 1-3.566-1.042 4.883 4.883 0 0 1-1.152-3.717 4.883 4.883 0 0 1 1.152-3.717 5.158 5.158 0 0 1 3.566-1.042 5.158 5.158 0 0 1 3.566 1.042 4.883 4.883 0 0 1 1.152 3.717 4.883 4.883 0 0 1-1.152 3.717 5.157 5.157 0 0 1-3.566 1.042zM57.279 46.7h4.732a1.536 1.536 0 0 1 1.728 1.742v56.65h-4.732a1.536 1.536 0 0 1-1.728-1.742z" class="cls-5" data-name="Path 499" transform="translate(16.298 7.522)"/>
                    </g>
                </g>
            </g>
        </g>
    </g>
</svg>
