<svg xmlns="http://www.w3.org/2000/svg" width="198" height="198" viewBox="0 0 198 198">
    <defs>
        <linearGradient id="linear-gradient" x1=".3" x2=".834" y1=".738" y2="-.121" gradientUnits="objectBoundingBox">
            <stop offset="0" stop-color="#009b9f"/>
            <stop offset="1" stop-color="#21ccd1"/>
        </linearGradient>
        <filter id="Ellipse_2280" width="198" height="198" x="0" y="0" filterUnits="userSpaceOnUse">
            <feOffset/>
            <feGaussianBlur result="blur" stdDeviation="10"/>
            <feFlood flood-opacity=".231"/>
            <feComposite in2="blur" operator="in"/>
            <feComposite in="SourceGraphic"/>
        </filter>
        <style>
            .cls-2{fill:#fff}
        </style>
    </defs>
    <g id="Group_11612" transform="translate(-564 -817)">
        <g filter="url(#Ellipse_2280)" transform="translate(564 817)">
            <circle id="Ellipse_2280-2" cx="69" cy="69" r="69" fill="url(#linear-gradient)" transform="translate(30 30)"/>
        </g>
        <g id="Group_11462" transform="translate(790.757 826.53)">
            <g id="Group_11461" transform="translate(-168.757 51.47)">
                <g id="Group_11460" transform="translate(25.677)">
                    <path id="Path_7242" d="M-61.875 89.345l-1.354-1.314a25.149 25.149 0 0 0 7.078-17.624 25.136 25.136 0 0 0-7.078-17.622l1.354-1.314a27.015 27.015 0 0 1 7.61 18.936 27.029 27.029 0 0 1-7.61 18.938z" class="cls-2" transform="translate(108.128 -51.47)"/>
                    <path id="Path_7243" d="M-75.771 85.971l-1.355-1.313a13.6 13.6 0 0 0 0-18.781l1.355-1.313a15.5 15.5 0 0 1 0 21.407z" class="cls-2" transform="translate(113.286 -56.329)"/>
                    <path id="Path_7244" d="M-127.016 89.345a27.028 27.028 0 0 1-7.611-18.939 27.012 27.012 0 0 1 7.612-18.936l1.353 1.314a25.137 25.137 0 0 0-7.078 17.622 25.149 25.149 0 0 0 7.078 17.624z" class="cls-2" transform="translate(134.627 -51.47)"/>
                    <path id="Path_7245" d="M-111.16 85.971a15.5 15.5 0 0 1 0-21.408l1.355 1.313a13.6 13.6 0 0 0 0 18.781z" class="cls-2" transform="translate(127.51 -56.329)"/>
                </g>
                <path id="Path_7246" d="M-93.072 112.058h-23.65V83.845a4.423 4.423 0 0 0 3.37-4.318 4.4 4.4 0 0 0-4.367-4.438 4.4 4.4 0 0 0-4.366 4.438 4.422 4.422 0 0 0 3.371 4.318v28.214h-50.044v9.6a4.356 4.356 0 0 0 4.315 4.386h75.685v-9.6a4.356 4.356 0 0 0-4.314-4.387zm2.323 11.96h-73.694a2.345 2.345 0 0 1-2.323-2.362v-7.574h73.694a2.346 2.346 0 0 1 2.323 2.362z" class="cls-2" transform="translate(168.757 -60.236)"/>
            </g>
        </g>
    </g>
</svg>
