<svg xmlns="http://www.w3.org/2000/svg" width="198" height="198" viewBox="0 0 198 198">
    <defs>
        <linearGradient id="linear-gradient" x1=".3" x2=".834" y1=".738" y2="-.121" gradientUnits="objectBoundingBox">
            <stop offset="0" stop-color="#009b9f"/>
            <stop offset="1" stop-color="#21ccd1"/>
        </linearGradient>
        <filter id="Ellipse_2281" width="198" height="198" x="0" y="0" filterUnits="userSpaceOnUse">
            <feOffset/>
            <feGaussianBlur result="blur" stdDeviation="10"/>
            <feFlood flood-opacity=".231"/>
            <feComposite in2="blur" operator="in"/>
            <feComposite in="SourceGraphic"/>
        </filter>
        <style>
            .cls-2{fill:#fff}
        </style>
    </defs>
    <g id="Group_11614" transform="translate(-1159 -817)">
        <g filter="url(#Ellipse_2281)" transform="translate(1159 817)">
            <circle id="Ellipse_2281-2" cx="69" cy="69" r="69" fill="url(#linear-gradient)" transform="translate(30 30)"/>
        </g>
        <g id="Group_11475" transform="translate(-719.358 -6325.372)">
            <path id="Path_7253" d="M2019.636 7219.539l-3.985-9.067-4 8.926-8.977 4.053 8.836 4.078 4.144 8.9 4.056-8.9 8.927-4.078zm-.8 6.06l-.719.328-.327.719-2.153 4.728-2.206-4.744-.327-.7-.7-.325-4.631-2.136 4.75-2.141.731-.33.329-.732 2.057-4.585 2.07 4.709.333.757.759.33 4.65 2.023z" class="cls-2" transform="translate(-4.275 -.281)"/>
            <path id="Path_7255" d="M2014.586 7253.15h-9.16v2.116h11.27v-14.09l-2.114.7z" class="cls-2" transform="translate(-4.464 -2.388)"/>
            <path id="Path_7256" d="M1942.477 7248.3v-31.355h62.14l.566-2.115h-6.334v-8.456h-45.1v8.456h-13.393v33.47a4.586 4.586 0 0 0 4.581 4.581h6.694v-2.112h-6.694a2.47 2.47 0 0 1-2.46-2.469zm13.388-39.812h40.87v6.342h-40.87z" class="cls-2"/>
            <path id="Path_7257" d="M1954.736 7241.173v24.094l12.22 13.254h32.878v-37.348zm11.98 33.963l-8.576-9.3h6.11a2.471 2.471 0 0 1 2.466 2.467zm31.009 1.271h-28.895v-8.107a4.587 4.587 0 0 0-4.581-4.581h-7.394v-20.433h40.87z" class="cls-2" transform="translate(-.986 -2.388)"/>
            <path id="Rectangle_5952" d="M0 0H30V2H0z" class="cls-2" transform="translate(1960.359 7255.372)"/>
            <path id="Rectangle_5953" d="M0 0H30V2H0z" class="cls-2" transform="translate(1960.359 7248.372)"/>
        </g>
    </g>
</svg>
