<svg id="Layer_1" data-name="Layer 1" xmlns="http://www.w3.org/2000/svg" viewBox="0 0 80 80"><defs><style>.cls-1{fill:#1096d4;}.cls-2{fill:#fff;}</style></defs><title>Content_icons</title><path class="cls-1" d="M40,0A40,40,0,1,0,80,40,40,40,0,0,0,40,0Z"/><path class="cls-2" d="M67.56,55.23V20.84a3.17,3.17,0,0,0-3.17-3.17H12.44V52.06a3.16,3.16,0,0,0,3.16,3.17H35.14v5.65H27.2v1.45H53.06V60.88H44.87V55.23ZM13.89,52.06V19.13h50.5a1.72,1.72,0,0,1,1.71,1.71h0V53.77H15.6A1.71,1.71,0,0,1,13.89,52.06Zm29.53,8.82H36.61V55.23h6.8Z"/><rect class="cls-2" x="19.45" y="34.66" width="1.47" height="14.41"/><rect class="cls-2" x="23.27" y="28.77" width="1.47" height="20.32"/><rect class="cls-2" x="27.07" y="30.67" width="1.47" height="18.41"/><rect class="cls-2" x="30.89" y="23.18" width="1.47" height="25.9"/><path class="cls-2" d="M56.85,30.16a7.28,7.28,0,0,0-3.19-6h0l-1.29-.68h0a7.29,7.29,0,1,0-2.83,14,7,7,0,0,0,1.51-.16h0l1.39-.45h0A7.27,7.27,0,0,0,56.85,30.16Zm-1.45,0v.37l-4.69-.73L53,25.42a5.84,5.84,0,0,1,2.38,4.74Zm-3.71-5.42-2.26,4.31-3.14-3.69A5.81,5.81,0,0,1,51.69,24.74ZM49.57,36a5.82,5.82,0,0,1-4.38-9.66l3.72,4.37,1.71,5.17A6.26,6.26,0,0,1,49.57,36ZM52,35.44l-1.37-4.18L55.1,32A5.79,5.79,0,0,1,52,35.44Z"/><path class="cls-2" d="M61.29,49H37.43V41.18H61.29ZM38.9,47.55H59.83v-4.9H38.9Z"/></svg>