<svg id="Layer_1" data-name="Layer 1" xmlns="http://www.w3.org/2000/svg" viewBox="0 0 80 80"><defs><style>.cls-1{fill:#1096d4;}.cls-2{fill:#1a96d4;}</style></defs><title>Content_icons</title><path class="cls-1" d="M40,1.33A38.67,38.67,0,1,1,1.33,40,38.67,38.67,0,0,1,40,1.33M40,0A40,40,0,1,0,80,40,40,40,0,0,0,40,0Z"/><path class="cls-2" d="M61.38,66.47H18.62V52.18c0-7.76,4.46-8.84,9.24-8.84H52.11c4.81,0,9.24,1.08,9.24,8.84ZM20,65.1H60V52.18c0-6.24-2.89-7.46-7.89-7.46H27.89c-5,0-7.89,1.22-7.89,7.46Z"/><path class="cls-2" d="M54.54,25.43c-.52-6.64-6.9-11.9-14.69-11.9s-14.17,5.26-14.71,11.9a2.16,2.16,0,0,0-2.05,2.16v4.63a2.16,2.16,0,0,0,2.14,2.16h1.86v-9h-.57c.54-5.89,6.3-10.53,13.34-10.53S52.65,19.54,53.2,25.43h-.57v9h.65c-.78,4.1-4.28,5.13-9.34,5.24a1.44,1.44,0,0,0-1.36-.79A1.49,1.49,0,1,0,43.92,41c3.64,0,9.75-.51,10.74-6.64a2.17,2.17,0,0,0,2-2.14V27.59A2.18,2.18,0,0,0,54.54,25.43Z"/><path class="cls-2" d="M39.83,17.26c-7.9,0-11.28,3.57-11.28,11.94s3.36,11.9,11.28,11.9h0a3,3,0,0,1-.11-.78,3.05,3.05,0,0,1,.06-.6c-7.11,0-9.88-2.95-9.88-10.52s2.68-10.56,9.89-10.56,10,2.89,10,10.56c0,4.42-.94,7.26-3.15,8.86a10.77,10.77,0,0,0,2.51-.58c1.38-1.92,2.05-4.65,2.05-8.28C51.14,20.83,47.76,17.26,39.83,17.26Z"/></svg>