<svg id="Layer_1" data-name="Layer 1" xmlns="http://www.w3.org/2000/svg" viewBox="0 0 80 80"><defs><style>.cls-1{fill:#1096d4;}.cls-2{fill:#fff;}</style></defs><title>Content_icons</title><path class="cls-1" d="M40,0A40,40,0,1,0,80,40,40,40,0,0,0,40,0Z"/><path class="cls-2" d="M57.78,17.39h-47V48.6a3.07,3.07,0,0,0,3,3H37.36a12,12,0,0,1-.54-1.41h-23a1.64,1.64,0,0,1-1.64-1.64h0V24.2h47.2v7.41H60.8V20.44A3.07,3.07,0,0,0,57.78,17.39Zm0,1.41a1.65,1.65,0,0,1,1.64,1.64v2.34H12.22v-4"/><rect class="cls-2" x="17.41" y="30.11" width="17.74" height="1.41"/><rect class="cls-2" x="17.41" y="37.07" width="17.74" height="1.41"/><path class="cls-2" d="M54,32.26A15.18,15.18,0,1,0,69.19,47.43v0A15.18,15.18,0,0,0,54,32.26ZM54,61A13.49,13.49,0,1,1,67.5,47.46,13.49,13.49,0,0,1,54,61Z"/><polygon class="cls-2" points="54.87 37.69 53.23 37.69 53.23 48.25 60.08 48.25 60.08 46.6 54.87 46.6 54.87 37.69"/></svg>