<svg xmlns="http://www.w3.org/2000/svg" width="29.8" height="29.8" viewBox="0 0 29.8 29.8">
    <defs>
        <style>
            .prefix__cls-1{fill:#0096d6}
        </style>
    </defs>
    <g id="prefix__icons_30_PFinder_Laptop" transform="translate(-.1 -.1)">
        <path id="prefix__Path_7166" d="M22.7 17.3V8.4A1.367 1.367 0 0 0 21.3 7H6.5v10.3L5 20.6a1.356 1.356 0 0 0 .7 1.8 1.268 1.268 0 0 0 .6.1H25zM7.9 8.4h13.4v8.3H7.9zM7.7 18h13.8l1.4 3.1H6.3z" class="prefix__cls-1" data-name="Path 7166"/>
        <path id="prefix__Path_7167" d="M15 .1A14.9 14.9 0 1 0 29.9 15 14.937 14.937 0 0 0 15 .1zm0 28.4A13.55 13.55 0 1 1 28.6 15 13.529 13.529 0 0 1 15 28.5z" class="prefix__cls-1" data-name="Path 7167"/>
    </g>
</svg>
