<svg xmlns="http://www.w3.org/2000/svg" width="29.8" height="29.7" viewBox="0 0 29.8 29.7">
    <defs>
        <style>
            .prefix__cls-1{fill:#0096d6}
        </style>
    </defs>
    <g id="prefix__icons_30_PFinder_Other" transform="translate(-.1 -.1)">
        <path id="prefix__Path_7164" d="M15 .1A14.85 14.85 0 1 0 29.9 15 14.937 14.937 0 0 0 15 .1zm0 28.4A13.55 13.55 0 1 1 28.6 15 13.529 13.529 0 0 1 15 28.5z" class="prefix__cls-1" data-name="Path 7164"/>
        <path id="prefix__Path_7165" d="M23.8 8.1H5.1v12a1.324 1.324 0 0 0 1.3 1.3h8v1.3h-3.8V24H20v-1.3h-4.2v-1.3h9.3v-12a1.324 1.324 0 0 0-1.3-1.3zm0 12H6.5V9.5h17.3z" class="prefix__cls-1" data-name="Path 7165"/>
    </g>
</svg>
