<svg xmlns="http://www.w3.org/2000/svg" width="29.8" height="29.8" viewBox="0 0 29.8 29.8">
    <defs>
        <style>
            .prefix__cls-1{fill:#0096d6}
        </style>
    </defs>
    <g id="prefix__icons_30_PFinder_Desktop" transform="translate(-.1 -.1)">
        <path id="prefix__Path_7168" d="M15 .1A14.9 14.9 0 1 0 29.9 15 14.937 14.937 0 0 0 15 .1zm0 28.4A13.55 13.55 0 1 1 28.6 15 13.529 13.529 0 0 1 15 28.5z" class="prefix__cls-1" data-name="Path 7168"/>
        <path id="prefix__Path_7169" d="M23.6 12.5h-5.5v8.6a1.367 1.367 0 0 0 1.4 1.4H25v-8.6a1.367 1.367 0 0 0-1.4-1.4zm0 8.6h-1.4v-4.5h-1.4v4.5h-1.4v-7.2h4.1v7.2z" class="prefix__cls-1" data-name="Path 7169"/>
        <path id="prefix__Path_7170" d="M7.1 18.4a.684.684 0 0 1-.7-.7V9.4h13.8a.684.684 0 0 1 .7.7v1h1.4v-1A2.258 2.258 0 0 0 20.2 8H5v9.6a2.112 2.112 0 0 0 2.1 2.1h6.2v1.4H7.8v1.4h8.9v-1.4h-2.1v-1.4h2.1v-1.4H7.1z" class="prefix__cls-1" data-name="Path 7170"/>
    </g>
</svg>
