<svg xmlns="http://www.w3.org/2000/svg" width="29.8" height="29.7" viewBox="0 0 29.8 29.7">
    <defs>
        <style>
            .prefix__cls-1{fill:#0096d6}
        </style>
    </defs>
    <g id="prefix___30_PFinder_Printer" data-name="30_PFinder_Printer" transform="translate(-.1 -.1)">
        <path id="prefix__Path_7171" d="M23.1 8.4h-2V5H8.9v3.4h-4v9.4a2.006 2.006 0 0 0 2 2h1.3v-1.3H6.9a.684.684 0 0 1-.7-.7v-8H23a.684.684 0 0 1 .7.7v8.1h-2v1.3h3.4v-9.4a2.03 2.03 0 0 0-2-2.1zm-3.4 0h-9.4v-2h9.4z" class="prefix__cls-1" data-name="Path 7171"/>
        <path id="prefix__Path_7172" d="M9.6 23.6a1.324 1.324 0 0 0 1.3 1.3h9.4V13.8H9.6zm1.4-8.5h8v8.4h-8z" class="prefix__cls-1" data-name="Path 7172"/>
        <path id="prefix__Rectangle_5855" d="M0 0H5.4V1.3H0z" class="prefix__cls-1" data-name="Rectangle 5855" transform="translate(12.3 17.2)"/>
        <path id="prefix__Rectangle_5856" d="M0 0H5.4V1.3H0z" class="prefix__cls-1" data-name="Rectangle 5856" transform="translate(12.3 19.9)"/>
        <path id="prefix__Path_7173" d="M15 .1A14.85 14.85 0 1 0 29.9 15 14.937 14.937 0 0 0 15 .1zm0 28.4A13.55 13.55 0 1 1 28.6 15 13.529 13.529 0 0 1 15 28.5z" class="prefix__cls-1" data-name="Path 7173"/>
    </g>
</svg>
