<svg xmlns="http://www.w3.org/2000/svg" width="20" height="20" viewBox="0 0 20 20">
    <defs>
        <style>
            .cls-1{fill:#cccccc;stroke:#cccccc}.cls-2{fill:none}.cls-3{clip-path:url(#clip-path)}.cls-4{clip-path:url(#clip-path-2)}.cls-5{fill:#cccccc}
        </style>
        <clipPath id="clip-path">
            <path d="M0 0h20v20H0z" class="cls-2"/>
        </clipPath>
        <clipPath id="clip-path-2">
            <path id="Rectangle_1" d="M0 0h20v20H0z" class="cls-1" data-name="Rectangle 1"/>
        </clipPath>
    </defs>
    <g id="Calls_to_Action:_Upload_30" class="cls-3" data-name="Calls to Action: Upload 30">
        <g id="Calls_to_Action:_Upload_30-2" class="cls-4" data-name="Calls to Action: Upload 30">
            <g id="Upload_RGB_blue_30" transform="translate(1.543)">
                <g id="Feedback_RGB_blue_60">
                    <g id="Upload_RGB_blue_30-2" data-name="Upload_RGB_blue_30">
                        <path id="Path_276" d="M9.3 4.608h1.376v8.457h1.534V4.608h1.415a.384.384 0 0 0 .331-.577L11.818.187a.384.384 0 0 0-.677 0L9 4.032a.384.384 0 0 0 .292.577z" class="cls-5" data-name="Path 276" transform="translate(-2.984 .014)"/>
                        <path id="Path_277" d="M14.608 9.226h-3.844v1.538h3.844a.769.769 0 0 1 .769.769v10H2.307a.769.769 0 0 1-.769-.769v-10h4.613V9.226H0v11.533a2.307 2.307 0 0 0 2.307 2.307h14.608V11.533a2.307 2.307 0 0 0-2.307-2.307z" class="cls-5" data-name="Path 277" transform="translate(0 -3.066)"/>
                    </g>
                </g>
            </g>
        </g>
    </g>
</svg>
