<svg xmlns="http://www.w3.org/2000/svg" width="12" height="12" fill="none" viewBox="0 0 12 12">
    <path fill="#666" d="M11.862 11.08L8.519 7.731c.74-.966 1.082-2.18.954-3.39-.128-1.21-.716-2.326-1.642-3.115C6.904.437 5.71.034 4.495.099c-1.216.066-2.36.595-3.196 1.48C.463 2.463 0 3.635.001 4.852.004 6.07.474 7.24 1.314 8.12c.84.88 1.987 1.405 3.202 1.465 1.216.06 2.408-.35 3.331-1.143l3.324 3.324c.091.09.214.14.343.14.128 0 .25-.051.342-.142.09-.09.142-.212.143-.34.002-.129-.048-.252-.137-.344zM.952 4.826c0-.751.221-1.485.637-2.11.417-.625 1.01-1.112 1.703-1.4.693-.288 1.457-.364 2.193-.218.737.146 1.414.507 1.945 1.038.531.53.893 1.207 1.04 1.943.147.737.072 1.5-.215 2.194S7.48 7.56 6.857 7.978c-.625.417-1.359.64-2.11.64-1.005 0-1.97-.4-2.681-1.11-.712-.71-1.113-1.675-1.114-2.68v-.001z"/>
</svg>
