<svg xmlns="http://www.w3.org/2000/svg" xmlns:xlink="http://www.w3.org/1999/xlink" width="30" height="30" viewBox="0 0 30 30">
  <defs>
    <style>
      .cls-1, .cls-2 {
        fill: none;
      }

      .cls-1 {
        clip-rule: evenodd;
      }

      .cls-3 {
        clip-path: url(#clip-path);
      }

      .cls-4 {
        clip-path: url(#clip-path-2);
      }

      .cls-5 {
        fill: #0171ad;
      }

      .cls-6 {
        fill: #fff;
      }
    </style>
    <clipPath id="clip-path">
      <path id="Path_941" data-name="Path 941" class="cls-1" d="M15,0A15,15,0,0,0,30-15,15,15,0,0,0,15-30,15,15,0,0,0,0-15,15,15,0,0,0,15,0Z"/>
    </clipPath>
    <clipPath id="clip-path-2">
      <path id="Path_940" data-name="Path 940" class="cls-2" d="M-396,838H1524V-4202H-396Z"/>
    </clipPath>
  </defs>
  <g id="Arrow" transform="translate(-441 -749)">
    <g id="Circle" class="cls-3" transform="translate(441 779)">
      <g id="Group_1145" data-name="Group 1145" class="cls-4">
        <path id="Path_939" data-name="Path 939" class="cls-5" d="M-5-35H35V5H-5Z"/>
      </g>
    </g>
    <path id="Arrow-2" data-name="Arrow" class="cls-6" d="M-374,2074.89a1,1,0,0,1-.514-.143,1,1,0,0,1-.342-1.372l2.691-4.485-2.691-4.486a1,1,0,0,1,.342-1.372,1,1,0,0,1,1.372.343l3,5a1,1,0,0,1,0,1.029l-3,5A1,1,0,0,1-374,2074.89Z" transform="translate(829 -1304.887)"/>
  </g>
</svg>
